Fira Sans-Regular.ufo
<glyph name="plus" format="1">
  <advance width="499"/>
  <unicode hex="002B"/>
  <outline>
    <contour>
      <point x="207" y="519" type="line"/>
      <point x="207" y="369" type="line"/>
      <point x="62" y="369" type="line"/>
      <point x="62" y="293" type="line"/>
      <point x="207" y="293" type="line"/>
      <point x="207" y="144" type="line"/>
      <point x="291" y="144" type="line"/>
      <point x="291" y="293" type="line"/>
      <point x="437" y="293" type="line"/>
      <point x="437" y="369" type="line"/>
      <point x="291" y="369" type="line"/>
      <point x="291" y="519" type="line"/>
    </contour>
  </outline>
</glyph>
<glyph name="q" format="1">
  <advance width="598"/>
  <unicode hex="0071"/>
  <outline>
    <contour>
      <point x="411" y="-202" type="line"/>
      <point x="503" y="-213" type="line"/>
      <point x="503" y="527" type="line"/>
      <point x="424" y="527" type="line"/>
      <point x="416" y="461" type="line"/>
      <point x="411" y="449" type="line"/>
    </contour>
    <contour>
      <point x="140" y="539"/>
      <point x="62" y="422"/>
      <point x="62" y="261" type="curve" smooth="yes"/>
      <point x="62" y="97"/>
      <point x="133" y="-12"/>
      <point x="261" y="-12" type="curve" smooth="yes"/>
      <point x="332" y="-12"/>
      <point x="389" y="26"/>
      <point x="422" y="88" type="curve"/>
      <point x="419" y="151" type="line"/>
      <point x="381" y="94"/>
      <point x="344" y="61"/>
      <point x="281" y="61" type="curve" smooth="yes"/>
      <point x="205" y="61"/>
      <point x="161" y="124"/>
      <point x="161" y="263" type="curve" smooth="yes"/>
      <point x="161" y="400"/>
      <point x="210" y="466"/>
      <point x="289" y="466" type="curve" smooth="yes"/>
      <point x="346" y="466"/>
      <point x="385" y="434"/>
      <point x="420" y="385" type="curve"/>
      <point x="421" y="463" type="line"/>
      <point x="385" y="505"/>
      <point x="337" y="539"/>
      <point x="269" y="539" type="curve" smooth="yes"/>
    </contour>
    <contour>
      <point x="302" y="527" type="move" name="top"/>
    </contour>
    <contour>
      <point x="302" y="-202" type="move" name="bottom"/>
    </contour>
  </outline>
</glyph>
<glyph name="asciitilde" format="1">
  <advance width="488"/>
  <unicode hex="007E"/>
  <outline>
    <contour>
      <point x="392" y="250"/>
      <point x="432" y="300"/>
      <point x="453" y="341" type="curve"/>
      <point x="398" y="371" type="line"/>
      <point x="382" y="345"/>
      <point x="358" y="323"/>
      <point x="328" y="323" type="curve" smooth="yes"/>
      <point x="283" y="323"/>
      <point x="246" y="384"/>
      <point x="172" y="384" type="curve" smooth="yes"/>
      <point x="97" y="384"/>
      <point x="56" y="328"/>
      <point x="35" y="287" type="curve"/>
      <point x="91" y="258" type="line"/>
      <point x="107" y="284"/>
      <point x="130" y="312"/>
      <point x="163" y="312" type="curve" smooth="yes"/>
      <point x="205" y="312"/>
      <point x="242" y="250"/>
      <point x="319" y="250" type="curve" smooth="yes"/>
    </contour>
    <contour>
      <point x="400" y="332" type="move" name="_center"/>
    </contour>
  </outline>
</glyph>
<glyph name="cent" format="1">
  <advance width="478"/>
  <unicode hex="00A2"/>
  <outline>
    <contour>
      <point x="250" y="684" type="line"/>
      <point x="250" y="533" type="line"/>
      <point x="329" y="534" type="line"/>
      <point x="329" y="684" type="line"/>
    </contour>
    <contour>
      <point x="249" y="-154" type="line"/>
      <point x="329" y="-154" type="line"/>
      <point x="329" y="-7" type="line"/>
      <point x="249" y="-6" type="line"/>
    </contour>
    <component base="c"/>
  </outline>
</glyph>
<glyph name="currency" format="1">
  <advance width="560"/>
  <unicode hex="00A4"/>
  <outline>
    <contour>
      <point x="157" y="549"/>
      <point x="71" y="456"/>
      <point x="71" y="341" type="curve" smooth="yes"/>
      <point x="71" y="225"/>
      <point x="157" y="132"/>
      <point x="278" y="132" type="curve" smooth="yes"/>
      <point x="409" y="132"/>
      <point x="492" y="225"/>
      <point x="492" y="341" type="curve" smooth="yes"/>
      <point x="492" y="456"/>
      <point x="409" y="549"/>
      <point x="278" y="549" type="curve" smooth="yes"/>
    </contour>
    <contour>
      <point x="169" y="176" type="line"/>
      <point x="117" y="231" type="line"/>
      <point x="29" y="143" type="line"/>
      <point x="82" y="88" type="line"/>
    </contour>
    <contour>
      <point x="531" y="143" type="line"/>
      <point x="445" y="228" type="line"/>
      <point x="388" y="174" type="line"/>
      <point x="476" y="88" type="line"/>
    </contour>
    <contour>
      <point x="29" y="540" type="line"/>
      <point x="115" y="451" type="line"/>
      <point x="171" y="506" type="line"/>
      <point x="84" y="595" type="line"/>
    </contour>
    <contour>
      <point x="391" y="508" type="line"/>
      <point x="446" y="454" type="line"/>
      <point x="531" y="540" type="line"/>
      <point x="478" y="595" type="line"/>
    </contour>
    <contour>
      <point x="362" y="479"/>
      <point x="404" y="427"/>
      <point x="404" y="342" type="curve" smooth="yes"/>
      <point x="404" y="256"/>
      <point x="362" y="205"/>
      <point x="281" y="205" type="curve" smooth="yes"/>
      <point x="202" y="205"/>
      <point x="159" y="256"/>
      <point x="159" y="342" type="curve" smooth="yes"/>
      <point x="159" y="427"/>
      <point x="202" y="479"/>
      <point x="281" y="479" type="curve" smooth="yes"/>
    </contour>
  </outline>
</glyph>
<glyph name="paragraph" format="1">
  <advance width="734"/>
  <unicode hex="00B6"/>
  <outline>
    <contour>
      <point x="336" y="689" type="line"/>
      <point x="314" y="643" type="line"/>
      <point x="314" y="-215" type="line"/>
      <point x="397" y="-202" type="line"/>
      <point x="397" y="616" type="line"/>
      <point x="511" y="616" type="line"/>
      <point x="511" y="-215" type="line"/>
      <point x="594" y="-202" type="line"/>
      <point x="594" y="689" type="line"/>
    </contour>
    <contour>
      <point x="185" y="689"/>
      <point x="90" y="616"/>
      <point x="90" y="486" type="curve" smooth="yes"/>
      <point x="90" y="370"/>
      <point x="163" y="282"/>
      <point x="336" y="282" type="curve"/>
      <point x="336" y="689" type="line"/>
    </contour>
  </outline>
</glyph>
<glyph name="multiply" format="1">
  <advance width="500"/>
  <unicode hex="00D7"/>
  <outline>
    <contour>
      <point x="248" y="361" type="line"/>
      <point x="128" y="486" type="line"/>
      <point x="72" y="429" type="line"/>
      <point x="192" y="305" type="line"/>
      <point x="72" y="185" type="line"/>
      <point x="128" y="129" type="line"/>
      <point x="252" y="253" type="line"/>
      <point x="372" y="129" type="line"/>
      <point x="428" y="185" type="line"/>
      <point x="308" y="309" type="line"/>
      <point x="428" y="429" type="line"/>
      <point x="372" y="486" type="line"/>
    </contour>
  </outline>
</glyph>
<glyph name="uni0180" format="1">
  <advance width="600"/>
  <unicode hex="0180"/>
  <outline>
    <contour>
      <point x="22" y="676" type="line"/>
      <point x="22" y="606" type="line"/>
      <point x="101" y="606" type="line"/>
      <point x="341" y="606" type="line"/>
      <point x="341" y="676" type="line"/>
    </contour>
    <component base="b" xOffset="6"/>
  </outline>
</glyph>
<glyph name="uni018D" format="1">
  <advance width="579"/>
  <unicode hex="018D"/>
  <outline>
    <contour>
      <point x="467" y="-8"/>
      <point x="436" y="41"/>
      <point x="327" y="83" type="curve" smooth="yes"/>
      <point x="197" y="133"/>
      <point x="156" y="181"/>
      <point x="156" y="284" type="curve" smooth="yes"/>
      <point x="156" y="402"/>
      <point x="204" y="465"/>
      <point x="290" y="465" type="curve" smooth="yes"/>
      <point x="380" y="465"/>
      <point x="423" y="401"/>
      <point x="423" y="287" type="curve" smooth="yes"/>
      <point x="423" y="184"/>
      <point x="378" y="124"/>
      <point x="301" y="80" type="curve"/>
      <point x="351" y="54" type="line"/>
      <point x="449" y="96"/>
      <point x="522" y="170"/>
      <point x="522" y="287" type="curve" smooth="yes"/>
      <point x="522" y="445"/>
      <point x="429" y="539"/>
      <point x="290" y="539" type="curve" smooth="yes"/>
      <point x="142" y="539"/>
      <point x="57" y="420"/>
      <point x="57" y="284" type="curve" smooth="yes"/>
      <point x="57" y="152"/>
      <point x="124" y="87"/>
      <point x="251" y="33" type="curve" smooth="yes"/>
      <point x="350" y="-9"/>
      <point x="372" y="-29"/>
      <point x="372" y="-74" type="curve" smooth="yes"/>
      <point x="372" y="-112"/>
      <point x="347" y="-144"/>
      <point x="280" y="-144" type="curve" smooth="yes"/>
      <point x="235" y="-144"/>
      <point x="201" y="-133"/>
      <point x="160" y="-105" type="curve"/>
      <point x="113" y="-162" type="line"/>
      <point x="161" y="-195"/>
      <point x="213" y="-216"/>
      <point x="291" y="-216" type="curve" smooth="yes"/>
      <point x="406" y="-216"/>
      <point x="467" y="-149"/>
      <point x="467" y="-74" type="curve" smooth="yes"/>
    </contour>
    <contour>
      <point x="290" y="527" type="move" name="top"/>
    </contour>
    <contour>
      <point x="290" y="-202" type="move" name="bottom"/>
    </contour>
  </outline>
</glyph>
<glyph name="uni018E" format="1">
  <advance width="535"/>
  <unicode hex="018E"/>
  <outline>
    <contour>
      <point x="60" y="613" type="line"/>
      <point x="340" y="613" type="line"/>
      <point x="340" y="388" type="line"/>
      <point x="108" y="388" type="line"/>
      <point x="108" y="312" type="line"/>
      <point x="340" y="312" type="line"/>
      <point x="340" y="76" type="line"/>
      <point x="54" y="76" type="line"/>
      <point x="54" y="0" type="line"/>
      <point x="435" y="0" type="line"/>
      <point x="435" y="689" type="line"/>
      <point x="60" y="689" type="line"/>
    </contour>
    <contour>
      <point x="235" y="689" type="move" name="top"/>
    </contour>
    <contour>
      <point x="233" y="0" type="move" name="bottom"/>
    </contour>
  </outline>
</glyph>
<glyph name="uni0199" format="1">
  <advance width="512"/>
  <unicode hex="0199"/>
  <outline>
    <contour>
      <point x="387" y="527" type="line"/>
      <point x="193" y="288" type="line"/>
      <point x="402" y="0" type="line"/>
      <point x="512" y="0" type="line"/>
      <point x="296" y="294" type="line"/>
      <point x="490" y="527" type="line"/>
    </contour>
    <contour>
      <point x="95" y="527" type="line"/>
      <point x="95" y="0" type="line"/>
      <point x="187" y="0" type="line"/>
      <point x="187" y="538" type="line"/>
    </contour>
    <component base="hookaboveHELPER" xOffset="65"/>
  </outline>
</glyph>
<glyph name="uni0239" format="1">
  <advance width="870"/>
  <unicode hex="0239"/>
  <outline>
    <contour>
      <point x="140" y="539"/>
      <point x="62" y="422"/>
      <point x="62" y="261" type="curve" smooth="yes"/>
      <point x="62" y="97"/>
      <point x="133" y="-12"/>
      <point x="251" y="-12" type="curve" smooth="yes"/>
      <point x="312" y="-12"/>
      <point x="369" y="26"/>
      <point x="402" y="88" type="curve"/>
      <point x="399" y="151" type="line"/>
      <point x="361" y="94"/>
      <point x="324" y="61"/>
      <point x="271" y="61" type="curve" smooth="yes"/>
      <point x="205" y="61"/>
      <point x="161" y="124"/>
      <point x="161" y="263" type="curve" smooth="yes"/>
      <point x="161" y="400"/>
      <point x="210" y="466"/>
      <point x="276" y="466" type="curve" smooth="yes"/>
      <point x="326" y="466"/>
      <point x="365" y="434"/>
      <point x="400" y="365" type="curve"/>
      <point x="408" y="440" type="line"/>
      <point x="375" y="505"/>
      <point x="321" y="539"/>
      <point x="264" y="539" type="curve" smooth="yes"/>
    </contour>
    <contour>
      <point x="404" y="527" type="line"/>
      <point x="391" y="408" type="line"/>
      <point x="391" y="404" type="line"/>
      <point x="391" y="-213" type="line"/>
      <point x="483" y="-202" type="line"/>
      <point x="483" y="404" type="line"/>
      <point x="479" y="439" type="line"/>
      <point x="470" y="527" type="line"/>
    </contour>
    <contour>
      <point x="563" y="539"/>
      <point x="506" y="504"/>
      <point x="467" y="440" type="curve"/>
      <point x="475" y="371" type="line"/>
      <point x="502" y="417"/>
      <point x="545" y="466"/>
      <point x="602" y="466" type="curve" smooth="yes"/>
      <point x="669" y="466"/>
      <point x="709" y="401"/>
      <point x="709" y="264" type="curve" smooth="yes"/>
      <point x="709" y="126"/>
      <point x="663" y="63"/>
      <point x="589" y="63" type="curve" smooth="yes"/>
      <point x="545" y="63"/>
      <point x="504" y="92"/>
      <point x="477" y="152" type="curve"/>
      <point x="466" y="91" type="line"/>
      <point x="510" y="11"/>
      <point x="558" y="-12"/>
      <point x="611" y="-12" type="curve" smooth="yes"/>
      <point x="737" y="-12"/>
      <point x="808" y="104"/>
      <point x="808" y="264" type="curve" smooth="yes"/>
      <point x="808" y="430"/>
      <point x="751" y="539"/>
      <point x="623" y="539" type="curve" smooth="yes"/>
    </contour>
    <contour>
      <point x="438" y="527" type="move" name="top"/>
    </contour>
    <contour>
      <point x="438" y="-202" type="move" name="bottom"/>
    </contour>
  </outline>
</glyph>
<glyph name="uni0244" format="1">
  <advance width="690"/>
  <unicode hex="0244"/>
  <outline>
    <contour>
      <point x="586" y="577" type="line"/>
      <point x="35" y="577" type="line"/>
      <point x="35" y="508" type="line"/>
      <point x="104" y="508" type="line"/>
      <point x="655" y="508" type="line"/>
      <point x="655" y="577" type="line"/>
    </contour>
    <component base="U" xOffset="14"/>
  </outline>
</glyph>
<glyph name="uni0258" format="1">
  <advance width="545"/>
  <unicode hex="0258"/>
  <outline>
    <contour>
      <point x="130" y="539"/>
      <point x="52" y="440"/>
      <point x="52" y="279" type="curve" smooth="yes"/>
      <point x="52" y="261"/>
      <point x="53" y="244"/>
      <point x="54" y="232" type="curve"/>
      <point x="406" y="232" type="line"/>
      <point x="406" y="300" type="line"/>
      <point x="143" y="300" type="line"/>
      <point x="143" y="302"/>
      <point x="143" y="304"/>
      <point x="143" y="306" type="curve" smooth="yes"/>
      <point x="143" y="409"/>
      <point x="187" y="466"/>
      <point x="268" y="466" type="curve" smooth="yes"/>
      <point x="357" y="466"/>
      <point x="391" y="412"/>
      <point x="391" y="265" type="curve" smooth="yes"/>
      <point x="391" y="118"/>
      <point x="341" y="63"/>
      <point x="258" y="63" type="curve" smooth="yes"/>
      <point x="196" y="63"/>
      <point x="157" y="77"/>
      <point x="111" y="109" type="curve"/>
      <point x="71" y="54" type="line"/>
      <point x="123" y="13"/>
      <point x="182" y="-12"/>
      <point x="255" y="-12" type="curve" smooth="yes"/>
      <point x="401" y="-12"/>
      <point x="488" y="91"/>
      <point x="488" y="258" type="curve" smooth="yes"/>
      <point x="488" y="427"/>
      <point x="418" y="539"/>
      <point x="270" y="539" type="curve" smooth="yes"/>
    </contour>
    <contour>
      <point x="274" y="527" type="move" name="top"/>
    </contour>
    <contour>
      <point x="268" y="0" type="move" name="bottom"/>
    </contour>
  </outline>
</glyph>
<glyph name="uni0270" format="1">
  <advance width="857"/>
  <unicode hex="0270"/>
  <outline>
    <contour>
      <point x="670" y="-202" type="line"/>
      <point x="762" y="-213" type="line"/>
      <point x="762" y="109" type="line"/>
      <point x="670" y="109" type="line"/>
    </contour>
    <component base="uni026F"/>
    <contour>
      <point x="429" y="-202" type="move" name="bottom"/>
    </contour>
  </outline>
</glyph>
<glyph name="uni0271" format="1">
  <advance width="857"/>
  <unicode hex="0271"/>
  <outline>
    <contour>
      <point x="707" y="-213"/>
      <point x="767" y="-160"/>
      <point x="767" y="-57" type="curve" smooth="yes"/>
      <point x="767" y="1" type="line"/>
      <point x="675" y="1" type="line"/>
      <point x="675" y="-65" type="line" smooth="yes"/>
      <point x="675" y="-118"/>
      <point x="650" y="-139"/>
      <point x="611" y="-139" type="curve" smooth="yes"/>
      <point x="578" y="-139"/>
      <point x="560" y="-130"/>
      <point x="537" y="-117" type="curve"/>
      <point x="501" y="-175" type="line"/>
      <point x="526" y="-194"/>
      <point x="563" y="-213"/>
      <point x="616" y="-213" type="curve" smooth="yes"/>
    </contour>
    <component base="m"/>
    <contour>
      <point x="429" y="-202" type="move" name="bottom"/>
    </contour>
  </outline>
</glyph>
<glyph name="uni0280" format="1">
  <advance width="527"/>
  <unicode hex="0280"/>
  <outline>
    <contour>
      <point x="95" y="527" type="line"/>
      <point x="95" y="0" type="line"/>
      <point x="187" y="0" type="line"/>
      <point x="187" y="456" type="line"/>
      <point x="237" y="456" type="line" smooth="yes"/>
      <point x="320" y="456"/>
      <point x="362" y="429"/>
      <point x="362" y="366" type="curve" smooth="yes"/>
      <point x="362" y="298"/>
      <point x="323" y="272"/>
      <point x="254" y="272" type="curve" smooth="yes"/>
      <point x="174" y="272" type="line"/>
      <point x="174" y="202" type="line"/>
      <point x="248" y="202" type="line" smooth="yes"/>
      <point x="381" y="202"/>
      <point x="458" y="270"/>
      <point x="458" y="366" type="curve" smooth="yes"/>
      <point x="458" y="471"/>
      <point x="380" y="527"/>
      <point x="238" y="527" type="curve" smooth="yes"/>
    </contour>
    <contour>
      <point x="246" y="225" type="line"/>
      <point x="388" y="0" type="line"/>
      <point x="492" y="0" type="line"/>
      <point x="333" y="238" type="line"/>
    </contour>
    <contour>
      <point x="261" y="527" type="move" name="top"/>
    </contour>
    <contour>
      <point x="261" y="0" type="move" name="bottom"/>
    </contour>
  </outline>
</glyph>
<glyph name="uni0281" format="1">
  <advance width="527"/>
  <unicode hex="0281"/>
  <outline>
    <contour>
      <point x="380" y="0"/>
      <point x="458" y="56"/>
      <point x="458" y="166" type="curve" smooth="yes"/>
      <point x="458" y="267"/>
      <point x="381" y="325"/>
      <point x="248" y="325" type="curve" smooth="yes"/>
      <point x="174" y="325" type="line"/>
      <point x="174" y="255" type="line"/>
      <point x="254" y="255" type="line" smooth="yes"/>
      <point x="323" y="255"/>
      <point x="362" y="229"/>
      <point x="362" y="166" type="curve" smooth="yes"/>
      <point x="362" y="98"/>
      <point x="320" y="71"/>
      <point x="237" y="71" type="curve" smooth="yes"/>
      <point x="187" y="71" type="line"/>
      <point x="187" y="527" type="line"/>
      <point x="95" y="527" type="line"/>
      <point x="95" y="0" type="line"/>
      <point x="238" y="0" type="line" smooth="yes"/>
    </contour>
    <contour>
      <point x="492" y="527" type="line"/>
      <point x="388" y="527" type="line"/>
      <point x="246" y="302" type="line"/>
      <point x="333" y="289" type="line"/>
    </contour>
    <contour>
      <point x="261" y="527" type="move" name="top"/>
    </contour>
    <contour>
      <point x="261" y="0" type="move" name="bottom"/>
    </contour>
  </outline>
</glyph>
<glyph name="uni0283" format="1">
  <advance width="282"/>
  <unicode hex="0283"/>
  <outline>
    <contour>
      <point x="95" y="527" type="line"/>
      <point x="95" y="0" type="line"/>
      <point x="187" y="0" type="line"/>
      <point x="187" y="527" type="line"/>
    </contour>
    <component base="hookaboveHELPER2" xOffset="65"/>
    <component base="hookHELPER" xOffset="-109"/>
    <contour>
      <point x="249" y="739" type="move" name="top"/>
    </contour>
    <contour>
      <point x="42" y="-202" type="move" name="bottom"/>
    </contour>
  </outline>
</glyph>
<glyph name="uni028F" format="1">
  <advance width="458"/>
  <unicode hex="028F"/>
  <outline>
    <contour>
      <point x="363" y="527" type="line"/>
      <point x="231" y="264" type="line"/>
      <point x="98" y="527" type="line"/>
      <point x="0" y="527" type="line"/>
      <point x="183" y="197" type="line"/>
      <point x="183" y="0" type="line"/>
      <point x="275" y="0" type="line"/>
      <point x="275" y="198" type="line"/>
      <point x="458" y="527" type="line"/>
    </contour>
    <contour>
      <point x="229" y="527" type="move" name="top"/>
    </contour>
    <contour>
      <point x="229" y="0" type="move" name="bottom"/>
    </contour>
  </outline>
</glyph>
<glyph name="uni02A1" format="1">
  <advance width="441"/>
  <unicode hex="02A1"/>
  <outline>
    <contour>
      <point x="64" y="145" type="line"/>
      <point x="132" y="145" type="line"/>
      <point x="332" y="145" type="line"/>
      <point x="332" y="215" type="line"/>
      <point x="64" y="215" type="line"/>
    </contour>
    <component base="uni0294"/>
  </outline>
</glyph>
<glyph name="gravecomb" format="1">
  <advance width="300"/>
  <unicode hex="0300"/>
  <outline>
    <contour>
      <point x="30" y="724" type="line"/>
      <point x="242" y="638" type="line"/>
      <point x="270" y="687" type="line"/>
      <point x="71" y="801" type="line"/>
    </contour>
    <contour>
      <point x="152" y="801" type="move" name="top"/>
    </contour>
    <contour>
      <point x="140" y="527" type="move" name="_top"/>
    </contour>
  </outline>
</glyph>
<glyph name="uni0304" format="1">
  <advance width="333"/>
  <unicode hex="0304"/>
  <outline>
    <contour>
      <point x="303" y="736" type="line"/>
      <point x="30" y="736" type="line"/>
      <point x="30" y="667" type="line"/>
      <point x="303" y="667" type="line"/>
    </contour>
    <contour>
      <point x="169" y="736" type="move" name="top"/>
    </contour>
    <contour>
      <point x="167" y="527" type="move" name="_top"/>
    </contour>
  </outline>
</glyph>
<glyph name="uni030D" format="1">
  <advance width="147"/>
  <unicode hex="030D"/>
  <outline>
    <contour>
      <point x="117" y="626" type="line"/>
      <point x="117" y="858" type="line"/>
      <point x="30" y="858" type="line"/>
      <point x="30" y="626" type="line"/>
    </contour>
    <contour>
      <point x="76" y="858" type="move" name="top"/>
    </contour>
    <contour>
      <point x="74" y="527" type="move" name="_top"/>
    </contour>
  </outline>
</glyph>
<glyph name="uni030F" format="1">
  <advance width="366"/>
  <unicode hex="030F"/>
  <outline>
    <contour>
      <point x="30" y="791" type="line"/>
      <point x="136" y="634" type="line"/>
      <point x="194" y="659" type="line"/>
      <point x="108" y="832" type="line"/>
    </contour>
    <contour>
      <point x="182" y="791" type="line"/>
      <point x="278" y="639" type="line"/>
      <point x="336" y="664" type="line"/>
      <point x="260" y="832" type="line"/>
    </contour>
    <contour>
      <point x="185" y="832" type="move" name="top"/>
    </contour>
    <contour>
      <point x="223" y="527" type="move" name="_top"/>
    </contour>
  </outline>
</glyph>
<glyph name="uni0313" format="1">
  <advance width="180"/>
  <unicode hex="0313"/>
  <outline>
    <component base="uni0326" yOffset="879"/>
    <contour>
      <point x="57" y="527" type="move" name="_top"/>
    </contour>
  </outline>
</glyph>
<glyph name="uni0316" format="1">
  <advance width="300"/>
  <unicode hex="0316"/>
  <outline>
    <component base="gravecomb.case" yOffset="-960"/>
    <contour>
      <point x="150" y="0" type="move" name="_bottom"/>
    </contour>
    <contour>
      <point x="152" y="-205" type="move" name="bottom"/>
    </contour>
  </outline>
</glyph>
<glyph name="uni031B" format="1">
  <advance width="194"/>
  <unicode hex="031B"/>
  <outline>
    <contour>
      <point x="120" y="420"/>
      <point x="164" y="456"/>
      <point x="164" y="525" type="curve" smooth="yes"/>
      <point x="164" y="561"/>
      <point x="156" y="588"/>
      <point x="145" y="607" type="curve"/>
      <point x="73" y="592" type="line"/>
      <point x="81" y="572"/>
      <point x="87" y="554"/>
      <point x="87" y="520" type="curve" smooth="yes"/>
      <point x="87" y="491"/>
      <point x="69" y="476"/>
      <point x="30" y="472" type="curve"/>
      <point x="40" y="417" type="line"/>
    </contour>
    <contour>
      <point x="50" y="527" type="move" name="_topright"/>
    </contour>
    <contour>
      <point x="102" y="527" type="move" name="topright"/>
    </contour>
  </outline>
</glyph>
<glyph name="uni031F" format="1">
  <advance width="313"/>
  <unicode hex="031F"/>
  <outline>
    <component base="uni208A" xOffset="-44" yOffset="-200"/>
    <contour>
      <point x="157" y="0" type="move" name="_bottom"/>
    </contour>
    <contour>
      <point x="159" y="-323" type="move" name="bottom"/>
    </contour>
  </outline>
</glyph>
<glyph name="uni0324" format="1">
  <advance width="385"/>
  <unicode hex="0324"/>
  <outline>
    <component base="uni0308" yOffset="-846"/>
    <contour>
      <point x="193" y="0" type="move" name="_bottom"/>
    </contour>
    <contour>
      <point x="195" y="-192" type="move" name="bottom"/>
    </contour>
  </outline>
</glyph>
<glyph name="uni0328" format="1">
  <advance width="263"/>
  <unicode hex="0328"/>
  <outline>
    <contour>
      <point x="90" y="-5"/>
      <point x="30" y="-57"/>
      <point x="30" y="-131" type="curve" smooth="yes"/>
      <point x="30" y="-189"/>
      <point x="78" y="-232"/>
      <point x="155" y="-232" type="curve" smooth="yes"/>
      <point x="181" y="-232"/>
      <point x="198" y="-229"/>
      <point x="218" y="-225" type="curve"/>
      <point x="227" y="-155" type="line"/>
      <point x="203" y="-160"/>
      <point x="187" y="-162"/>
      <point x="166" y="-162" type="curve" smooth="yes"/>
      <point x="125" y="-162"/>
      <point x="110" y="-144"/>
      <point x="110" y="-114" type="curve" smooth="yes"/>
      <point x="110" y="-78"/>
      <point x="131" y="-44"/>
      <point x="233" y="0" type="curve"/>
      <point x="219" y="33" type="line"/>
    </contour>
    <contour>
      <point x="243" y="0" type="move" name="_ogonek"/>
    </contour>
  </outline>
</glyph>
<glyph name="uni0339" format="1">
  <advance width="174"/>
  <unicode hex="0339"/>
  <outline>
    <component base="uni031C" xOffset="175" yOffset="1" xScale="-1"/>
    <contour>
      <point x="87" y="0" type="move" name="_bottom"/>
    </contour>
    <contour>
      <point x="87" y="-306" type="move" name="bottom"/>
    </contour>
  </outline>
</glyph>
<glyph name="uni0342" format="1">
  <advance width="394"/>
  <unicode hex="0342"/>
  <outline>
    <component base="tildecomb"/>
    <contour>
      <point x="197" y="730" type="move" name="top"/>
    </contour>
    <contour>
      <point x="197" y="527" type="move" name="_top"/>
    </contour>
  </outline>
</glyph>
<glyph name="uni0373" format="1">
  <advance width="478"/>
  <unicode hex="0373"/>
  <outline>
    <contour>
      <point x="195" y="484" type="line"/>
      <point x="195" y="-213" type="line"/>
      <point x="287" y="-202" type="line"/>
      <point x="287" y="484" type="line"/>
    </contour>
    <contour>
      <point x="44" y="449"/>
      <point x="57" y="451"/>
      <point x="100" y="451" type="curve" smooth="yes"/>
      <point x="474" y="452" type="line"/>
      <point x="474" y="527" type="line"/>
      <point x="102" y="527" type="line" smooth="yes"/>
      <point x="53" y="527"/>
      <point x="31" y="525"/>
      <point x="-5" y="512" type="curve"/>
      <point x="11" y="440" type="line"/>
    </contour>
    <contour>
      <point x="241" y="527" type="move" name="top"/>
    </contour>
    <contour>
      <point x="241" y="-202" type="move" name="bottom"/>
    </contour>
  </outline>
</glyph>
<glyph name="tonos" format="1">
  <advance width="161"/>
  <unicode hex="0384"/>
  <outline>
    <contour>
      <point x="30" y="596" type="line"/>
      <point x="96" y="596" type="line"/>
      <point x="131" y="799" type="line"/>
      <point x="33" y="807" type="line"/>
    </contour>
    <contour>
      <point x="63" y="527" type="move" name="_top"/>
    </contour>
  </outline>
</glyph>
<glyph name="dieresistonos" format="1">
  <advance width="385"/>
  <unicode hex="0385"/>
  <outline>
    <contour>
      <point x="55" y="738"/>
      <point x="30" y="713"/>
      <point x="30" y="681" type="curve" smooth="yes"/>
      <point x="30" y="649"/>
      <point x="55" y="624"/>
      <point x="88" y="624" type="curve" smooth="yes"/>
      <point x="120" y="624"/>
      <point x="145" y="649"/>
      <point x="145" y="681" type="curve" smooth="yes"/>
      <point x="145" y="713"/>
      <point x="120" y="738"/>
      <point x="88" y="738" type="curve" smooth="yes"/>
    </contour>
    <contour>
      <point x="265" y="738"/>
      <point x="240" y="713"/>
      <point x="240" y="681" type="curve" smooth="yes"/>
      <point x="240" y="649"/>
      <point x="265" y="624"/>
      <point x="297" y="624" type="curve" smooth="yes"/>
      <point x="330" y="624"/>
      <point x="355" y="649"/>
      <point x="355" y="681" type="curve" smooth="yes"/>
      <point x="355" y="713"/>
      <point x="330" y="738"/>
      <point x="297" y="738" type="curve" smooth="yes"/>
    </contour>
    <contour>
      <point x="167" y="730" type="line"/>
      <point x="224" y="730" type="line"/>
      <point x="254" y="906" type="line"/>
      <point x="169" y="913" type="line"/>
    </contour>
    <contour>
      <point x="193" y="527" type="move" name="_top"/>
    </contour>
  </outline>
</glyph>
<glyph name="kappa" format="1">
  <advance width="525"/>
  <unicode hex="03BA"/>
  <outline>
    <contour>
      <point x="428" y="539" type="line"/>
      <point x="197" y="282" type="line"/>
      <point x="379" y="65" type="line" smooth="yes"/>
      <point x="420" y="16"/>
      <point x="445" y="-6"/>
      <point x="496" y="-12" type="curve"/>
      <point x="525" y="56" type="line"/>
      <point x="496" y="67"/>
      <point x="474" y="82"/>
      <point x="448" y="113" type="curve" smooth="yes"/>
      <point x="302" y="285" type="line"/>
      <point x="496" y="499" type="line"/>
    </contour>
    <contour>
      <point x="75" y="527" type="line"/>
      <point x="89" y="483"/>
      <point x="101" y="434"/>
      <point x="101" y="357" type="curve" smooth="yes"/>
      <point x="101" y="0" type="line"/>
      <point x="193" y="0" type="line"/>
      <point x="193" y="339" type="line" smooth="yes"/>
      <point x="193" y="451"/>
      <point x="176" y="503"/>
      <point x="159" y="539" type="curve"/>
    </contour>
    <contour>
      <point x="263" y="527" type="move" name="top"/>
    </contour>
    <contour>
      <point x="263" y="0" type="move" name="bottom"/>
    </contour>
  </outline>
</glyph>
<glyph name="rho" format="1">
  <advance width="584"/>
  <unicode hex="03C1"/>
  <outline>
    <contour>
      <point x="159" y="539"/>
      <point x="85" y="448"/>
      <point x="85" y="271" type="curve" smooth="yes"/>
      <point x="85" y="-213" type="line"/>
      <point x="177" y="-202" type="line"/>
      <point x="177" y="256" type="line" smooth="yes"/>
      <point x="177" y="392"/>
      <point x="208" y="467"/>
      <point x="302" y="467" type="curve" smooth="yes"/>
      <point x="381" y="467"/>
      <point x="423" y="405"/>
      <point x="423" y="264" type="curve" smooth="yes"/>
      <point x="423" y="133"/>
      <point x="377" y="63"/>
      <point x="293" y="63" type="curve" smooth="yes"/>
      <point x="239" y="63"/>
      <point x="193" y="92"/>
      <point x="168" y="152" type="curve"/>
      <point x="165" y="73" type="line"/>
      <point x="199" y="11"/>
      <point x="252" y="-12"/>
      <point x="315" y="-12" type="curve" smooth="yes"/>
      <point x="451" y="-12"/>
      <point x="522" y="115"/>
      <point x="522" y="264" type="curve" smooth="yes"/>
      <point x="522" y="440"/>
      <point x="446" y="539"/>
      <point x="300" y="539" type="curve" smooth="yes"/>
    </contour>
    <contour>
      <point x="300" y="527" type="move" name="top"/>
    </contour>
    <contour>
      <point x="290" y="-202" type="move" name="bottom"/>
    </contour>
  </outline>
</glyph>
<glyph name="tau" format="1">
  <advance width="459"/>
  <unicode hex="03C4"/>
  <outline>
    <contour>
      <point x="317" y="57" type="line"/>
      <point x="284" y="72"/>
      <point x="271" y="89"/>
      <point x="271" y="141" type="curve"/>
      <point x="271" y="468" type="line"/>
      <point x="179" y="468" type="line"/>
      <point x="179" y="129" type="line"/>
      <point x="179" y="45"/>
      <point x="206" y="8"/>
      <point x="288" y="-12" type="curve"/>
    </contour>
    <contour>
      <point x="44" y="449"/>
      <point x="57" y="451"/>
      <point x="110" y="452" type="curve"/>
      <point x="455" y="452" type="line"/>
      <point x="455" y="527" type="line"/>
      <point x="102" y="527" type="line" smooth="yes"/>
      <point x="53" y="527"/>
      <point x="31" y="525"/>
      <point x="-5" y="512" type="curve"/>
      <point x="11" y="440" type="line"/>
    </contour>
    <contour>
      <point x="225" y="527" type="move" name="top"/>
    </contour>
    <contour>
      <point x="225" y="0" type="move" name="bottom"/>
    </contour>
  </outline>
</glyph>
<glyph name="uni03F1" format="1">
  <advance width="584"/>
  <unicode hex="03F1"/>
  <outline>
    <contour>
      <point x="451" y="22"/>
      <point x="522" y="152"/>
      <point x="522" y="289" type="curve" smooth="yes"/>
      <point x="522" y="440"/>
      <point x="446" y="539"/>
      <point x="300" y="539" type="curve" smooth="yes"/>
      <point x="159" y="539"/>
      <point x="85" y="448"/>
      <point x="85" y="271" type="curve" smooth="yes"/>
      <point x="85" y="13" type="line"/>
      <point x="177" y="13" type="line"/>
      <point x="177" y="256" type="line" smooth="yes"/>
      <point x="177" y="392"/>
      <point x="208" y="467"/>
      <point x="302" y="467" type="curve" smooth="yes"/>
      <point x="381" y="467"/>
      <point x="423" y="405"/>
      <point x="423" y="289" type="curve" smooth="yes"/>
      <point x="423" y="170"/>
      <point x="377" y="96"/>
      <point x="293" y="96" type="curve" smooth="yes"/>
      <point x="239" y="96"/>
      <point x="193" y="129"/>
      <point x="168" y="189" type="curve"/>
      <point x="165" y="110" type="line"/>
      <point x="199" y="48"/>
      <point x="252" y="22"/>
      <point x="315" y="22" type="curve" smooth="yes"/>
    </contour>
    <contour>
      <point x="462" y="-184" type="line"/>
      <point x="447" y="-140"/>
      <point x="409" y="-114"/>
      <point x="315" y="-100" type="curve" smooth="yes"/>
      <point x="203" y="-83"/>
      <point x="177" y="-67"/>
      <point x="177" y="13" type="curve"/>
      <point x="85" y="13" type="line"/>
      <point x="85" y="-106"/>
      <point x="141" y="-149"/>
      <point x="256" y="-167" type="curve" smooth="yes"/>
      <point x="349" y="-182"/>
      <point x="363" y="-188"/>
      <point x="377" y="-216" type="curve"/>
    </contour>
    <contour>
      <point x="290" y="527" type="move" name="top"/>
    </contour>
    <contour>
      <point x="290" y="-202" type="move" name="bottom"/>
    </contour>
  </outline>
</glyph>
<glyph name="uni03FC" format="1">
  <advance width="584"/>
  <unicode hex="03FC"/>
  <outline>
    <contour>
      <point x="11" y="-134" type="line"/>
      <point x="90" y="-134" type="line"/>
      <point x="340" y="-134" type="line"/>
      <point x="340" y="-64" type="line"/>
      <point x="11" y="-64" type="line"/>
    </contour>
    <component base="rho"/>
  </outline>
</glyph>
<glyph name="uni040B" format="1">
  <advance width="717"/>
  <unicode hex="040B"/>
  <outline>
    <contour>
      <point x="15" y="689" type="line"/>
      <point x="15" y="608" type="line"/>
      <point x="211" y="608" type="line"/>
      <point x="497" y="608" type="line"/>
      <point x="507" y="689" type="line"/>
    </contour>
    <component base="uni04BA" xOffset="111"/>
  </outline>
</glyph>
<glyph name="uni042D" format="1">
  <advance width="537"/>
  <unicode hex="042D"/>
  <outline>
    <contour>
      <point x="142" y="701"/>
      <point x="81" y="675"/>
      <point x="27" y="630" type="curve"/>
      <point x="76" y="572" type="line"/>
      <point x="124" y="607"/>
      <point x="163" y="623"/>
      <point x="226" y="623" type="curve" smooth="yes"/>
      <point x="312" y="623"/>
      <point x="381" y="561"/>
      <point x="381" y="368" type="curve" smooth="yes"/>
      <point x="381" y="335" type="line" smooth="yes"/>
      <point x="381" y="146"/>
      <point x="318" y="68"/>
      <point x="211" y="68" type="curve" smooth="yes"/>
      <point x="145" y="68"/>
      <point x="107" y="91"/>
      <point x="68" y="121" type="curve"/>
      <point x="20" y="62" type="line"/>
      <point x="63" y="22"/>
      <point x="122" y="-12"/>
      <point x="214" y="-12" type="curve" smooth="yes"/>
      <point x="381" y="-12"/>
      <point x="482" y="113"/>
      <point x="482" y="345" type="curve" smooth="yes"/>
      <point x="482" y="605"/>
      <point x="372" y="701"/>
      <point x="227" y="701" type="curve" smooth="yes"/>
    </contour>
    <contour>
      <point x="114" y="394" type="line"/>
      <point x="114" y="316" type="line"/>
      <point x="399" y="316" type="line"/>
      <point x="397" y="394" type="line"/>
    </contour>
    <contour>
      <point x="231" y="689" type="move" name="top"/>
    </contour>
    <contour>
      <point x="265" y="0" type="move" name="bottom"/>
    </contour>
  </outline>
</glyph>
<glyph name="uni042F" format="1">
  <advance width="606"/>
  <unicode hex="042F"/>
  <outline>
    <contour>
      <point x="189" y="306" type="line"/>
      <point x="30" y="0" type="line"/>
      <point x="138" y="0" type="line"/>
      <point x="278" y="285" type="line"/>
    </contour>
    <contour>
      <point x="242" y="271" type="line"/>
      <point x="427" y="271" type="line"/>
      <point x="427" y="346" type="line"/>
      <point x="287" y="346" type="line" smooth="yes"/>
      <point x="206" y="346"/>
      <point x="149" y="388"/>
      <point x="149" y="477" type="curve" smooth="yes"/>
      <point x="149" y="569"/>
      <point x="196" y="615"/>
      <point x="317" y="615" type="curve" smooth="yes"/>
      <point x="411" y="615" type="line"/>
      <point x="411" y="0" type="line"/>
      <point x="506" y="0" type="line"/>
      <point x="506" y="689" type="line"/>
      <point x="311" y="689" type="line" smooth="yes"/>
      <point x="136" y="689"/>
      <point x="48" y="609"/>
      <point x="48" y="477" type="curve" smooth="yes"/>
      <point x="48" y="389"/>
      <point x="94" y="319"/>
      <point x="185" y="286" type="curve"/>
    </contour>
    <contour>
      <point x="308" y="689" type="move" name="top"/>
    </contour>
    <contour>
      <point x="308" y="0" type="move" name="bottom"/>
    </contour>
  </outline>
</glyph>
<glyph name="uni0432" format="1">
  <advance width="564"/>
  <unicode hex="0432"/>
  <outline>
    <contour>
      <point x="210" y="539"/>
      <point x="149" y="531"/>
      <point x="95" y="520" type="curve"/>
      <point x="95" y="0" type="line"/>
      <point x="285" y="0" type="line" smooth="yes"/>
      <point x="412" y="0"/>
      <point x="507" y="46"/>
      <point x="507" y="162" type="curve" smooth="yes"/>
      <point x="507" y="235"/>
      <point x="463" y="277"/>
      <point x="373" y="286" type="curve"/>
      <point x="443" y="298"/>
      <point x="480" y="336"/>
      <point x="480" y="396" type="curve" smooth="yes"/>
      <point x="480" y="490"/>
      <point x="395" y="539"/>
      <point x="268" y="539" type="curve" smooth="yes"/>
    </contour>
    <contour>
      <point x="346" y="468"/>
      <point x="386" y="447"/>
      <point x="386" y="392" type="curve" smooth="yes"/>
      <point x="386" y="332"/>
      <point x="345" y="313"/>
      <point x="286" y="313" type="curve" smooth="yes"/>
      <point x="171" y="313" type="line"/>
      <point x="171" y="245" type="line"/>
      <point x="287" y="245" type="line" smooth="yes"/>
      <point x="377" y="245"/>
      <point x="410" y="220"/>
      <point x="410" y="164" type="curve" smooth="yes"/>
      <point x="410" y="89"/>
      <point x="354" y="72"/>
      <point x="285" y="72" type="curve" smooth="yes"/>
      <point x="187" y="72" type="line"/>
      <point x="187" y="462" type="line"/>
      <point x="214" y="466"/>
      <point x="238" y="468"/>
      <point x="269" y="468" type="curve" smooth="yes"/>
    </contour>
    <contour>
      <point x="269" y="527" type="move" name="top"/>
    </contour>
    <contour>
      <point x="274" y="0" type="move" name="bottom"/>
    </contour>
  </outline>
</glyph>
<glyph name="uni043B" format="1">
  <advance width="576"/>
  <unicode hex="043B"/>
  <outline>
    <contour>
      <point x="209" y="452" type="line"/>
      <point x="389" y="452" type="line"/>
      <point x="389" y="0" type="line"/>
      <point x="481" y="0" type="line"/>
      <point x="481" y="527" type="line"/>
      <point x="142" y="527" type="line"/>
    </contour>
    <contour>
      <point x="142" y="527" type="line"/>
      <point x="121" y="286" type="line" smooth="yes"/>
      <point x="106" y="112"/>
      <point x="102" y="85"/>
      <point x="37" y="61" type="curve"/>
      <point x="60" y="-12" type="line"/>
      <point x="174" y="23"/>
      <point x="194" y="75"/>
      <point x="211" y="276" type="curve" smooth="yes"/>
      <point x="226" y="452" type="line"/>
    </contour>
    <contour>
      <point x="288" y="527" type="move" name="top"/>
    </contour>
    <contour>
      <point x="288" y="0" type="move" name="bottom"/>
    </contour>
    <contour>
      <point x="491" y="0" type="move" name="bottomright"/>
    </contour>
  </outline>
</glyph>
<glyph name="uni044A" format="1">
  <advance width="600"/>
  <unicode hex="044A"/>
  <outline>
    <contour>
      <point x="271" y="527" type="line"/>
      <point x="5" y="527" type="line"/>
      <point x="5" y="457" type="line"/>
      <point x="179" y="457" type="line"/>
    </contour>
    <component base="uni044C" xOffset="84"/>
  </outline>
</glyph>
<glyph name="uni0452" format="1">
  <advance width="589"/>
  <unicode hex="0452"/>
  <outline>
    <contour>
      <point x="22" y="676" type="line"/>
      <point x="22" y="606" type="line"/>
      <point x="101" y="606" type="line"/>
      <point x="346" y="606" type="line"/>
      <point x="346" y="676" type="line"/>
    </contour>
    <contour>
      <point x="190" y="0" type="line"/>
      <point x="190" y="748" type="line"/>
      <point x="98" y="738" type="line"/>
      <point x="98" y="0" type="line"/>
    </contour>
    <contour>
      <point x="270" y="539"/>
      <point x="212" y="495"/>
      <point x="174" y="430" type="curve"/>
      <point x="190" y="375" type="line"/>
      <point x="225" y="430"/>
      <point x="266" y="467"/>
      <point x="323" y="467" type="curve" smooth="yes"/>
      <point x="373" y="467"/>
      <point x="407" y="444"/>
      <point x="407" y="365" type="curve" smooth="yes"/>
      <point x="407" y="100" type="line"/>
      <point x="499" y="100" type="line"/>
      <point x="499" y="378" type="line" smooth="yes"/>
      <point x="499" y="477"/>
      <point x="442" y="539"/>
      <point x="346" y="539" type="curve" smooth="yes"/>
    </contour>
    <contour>
      <point x="407" y="127" type="line"/>
      <point x="407" y="26" type="line" smooth="yes"/>
      <point x="407" y="-87"/>
      <point x="374" y="-113"/>
      <point x="305" y="-145" type="curve"/>
      <point x="332" y="-212" type="line"/>
      <point x="444" y="-162"/>
      <point x="499" y="-117"/>
      <point x="499" y="32" type="curve" smooth="yes"/>
      <point x="499" y="127" type="line"/>
    </contour>
    <contour>
      <point x="296" y="739" type="move" name="top"/>
    </contour>
    <contour>
      <point x="296" y="-202" type="move" name="bottom"/>
    </contour>
  </outline>
</glyph>
<glyph name="uni0463" format="1">
  <advance width="525"/>
  <unicode hex="0463"/>
  <outline>
    <contour>
      <point x="320" y="467" type="line"/>
      <point x="331" y="537" type="line"/>
      <point x="106" y="537" type="line"/>
      <point x="22" y="537" type="line"/>
      <point x="22" y="467" type="line"/>
    </contour>
    <contour>
      <point x="182" y="287" type="line"/>
      <point x="262" y="287" type="line" smooth="yes"/>
      <point x="347" y="287"/>
      <point x="392" y="256"/>
      <point x="392" y="181" type="curve" smooth="yes"/>
      <point x="392" y="92"/>
      <point x="334" y="72"/>
      <point x="260" y="72" type="curve" smooth="yes"/>
      <point x="198" y="72" type="line"/>
      <point x="198" y="657" type="line"/>
      <point x="106" y="646" type="line"/>
      <point x="106" y="0" type="line"/>
      <point x="250" y="0" type="line" smooth="yes"/>
      <point x="400" y="0"/>
      <point x="490" y="57"/>
      <point x="490" y="181" type="curve" smooth="yes"/>
      <point x="490" y="299"/>
      <point x="413" y="357"/>
      <point x="253" y="357" type="curve" smooth="yes"/>
      <point x="182" y="357" type="line"/>
    </contour>
    <contour>
      <point x="152" y="646" type="move" name="top"/>
    </contour>
    <contour>
      <point x="261" y="0" type="move" name="bottom"/>
    </contour>
  </outline>
</glyph>
<glyph name="uni0490" format="1">
  <advance width="508"/>
  <unicode hex="0490"/>
  <outline>
    <contour>
      <point x="498" y="689" type="line"/>
      <point x="498" y="816" type="line"/>
      <point x="406" y="816" type="line"/>
      <point x="406" y="679" type="line"/>
    </contour>
    <component base="uni0413"/>
  </outline>
</glyph>
<glyph name="uni0492" format="1">
  <advance width="516"/>
  <unicode hex="0492"/>
  <outline>
    <contour>
      <point x="10" y="413" type="line"/>
      <point x="10" y="343" type="line"/>
      <point x="108" y="343" type="line"/>
      <point x="359" y="343" type="line"/>
      <point x="359" y="413" type="line"/>
    </contour>
    <component base="uni0413" xOffset="8"/>
  </outline>
</glyph>
<glyph name="uni0493" format="1">
  <advance width="441"/>
  <unicode hex="0493"/>
  <outline>
    <contour>
      <point x="107" y="303" type="line"/>
      <point x="25" y="303" type="line"/>
      <point x="25" y="233" type="line"/>
      <point x="313" y="233" type="line"/>
      <point x="313" y="303" type="line"/>
    </contour>
    <component base="uni0433" xOffset="12"/>
  </outline>
</glyph>
<glyph name="uni049F" format="1">
  <advance width="524"/>
  <unicode hex="049F"/>
  <outline>
    <contour>
      <point x="192" y="0" type="line"/>
      <point x="192" y="243" type="line"/>
      <point x="259" y="243" type="line"/>
      <point x="405" y="0" type="line"/>
      <point x="514" y="0" type="line"/>
      <point x="335" y="283" type="line"/>
      <point x="495" y="527" type="line"/>
      <point x="394" y="527" type="line"/>
      <point x="261" y="315" type="line"/>
      <point x="192" y="315" type="line"/>
      <point x="192" y="748" type="line"/>
      <point x="100" y="738" type="line"/>
      <point x="100" y="0" type="line"/>
    </contour>
    <contour>
      <point x="101" y="566" type="line"/>
      <point x="341" y="566" type="line"/>
      <point x="341" y="636" type="line"/>
      <point x="22" y="636" type="line"/>
      <point x="22" y="566" type="line"/>
    </contour>
  </outline>
</glyph>
<glyph name="uni04A4" format="1">
  <advance width="791"/>
  <unicode hex="04A4"/>
  <outline>
    <contour>
      <point x="580" y="608" type="line"/>
      <point x="771" y="608" type="line"/>
      <point x="781" y="689" type="line"/>
      <point x="485" y="689" type="line"/>
    </contour>
    <component base="H"/>
  </outline>
</glyph>
<glyph name="uni04A5" format="1">
  <advance width="677"/>
  <unicode hex="04A5"/>
  <outline>
    <contour>
      <point x="497" y="452" type="line"/>
      <point x="666" y="452" type="line"/>
      <point x="677" y="527" type="line"/>
      <point x="406" y="527" type="line"/>
    </contour>
    <component base="uni043D"/>
  </outline>
</glyph>
<glyph name="uni04B0" format="1">
  <advance width="550"/>
  <unicode hex="04B0"/>
  <outline>
    <contour>
      <point x="107" y="306" type="line"/>
      <point x="107" y="236" type="line"/>
      <point x="227" y="236" type="line"/>
      <point x="323" y="236" type="line"/>
      <point x="443" y="236" type="line"/>
      <point x="443" y="306" type="line"/>
    </contour>
    <component base="Y"/>
  </outline>
</glyph>
<glyph name="uni04D9" format="1">
  <advance width="554"/>
  <unicode hex="04D9"/>
  <outline>
    <contour>
      <point x="198" y="539"/>
      <point x="138" y="515"/>
      <point x="90" y="476" type="curve"/>
      <point x="132" y="415" type="line"/>
      <point x="177" y="452"/>
      <point x="219" y="464"/>
      <point x="267" y="464" type="curve" smooth="yes"/>
      <point x="352" y="464"/>
      <point x="398" y="407"/>
      <point x="400" y="270" type="curve"/>
      <point x="400" y="251" type="line"/>
      <point x="401" y="111"/>
      <point x="353" y="61"/>
      <point x="271" y="61" type="curve" smooth="yes"/>
      <point x="191" y="61"/>
      <point x="142" y="118"/>
      <point x="142" y="219" type="curve" smooth="yes"/>
      <point x="142" y="222"/>
      <point x="142" y="224"/>
      <point x="142" y="227" type="curve"/>
      <point x="415" y="227" type="line"/>
      <point x="415" y="295" type="line"/>
      <point x="54" y="295" type="line"/>
      <point x="52" y="281"/>
      <point x="52" y="265"/>
      <point x="52" y="248" type="curve" smooth="yes"/>
      <point x="52" y="85"/>
      <point x="138" y="-12"/>
      <point x="271" y="-12" type="curve" smooth="yes"/>
      <point x="409" y="-12"/>
      <point x="497" y="94"/>
      <point x="497" y="264" type="curve" smooth="yes"/>
      <point x="497" y="431"/>
      <point x="426" y="539"/>
      <point x="269" y="539" type="curve" smooth="yes"/>
    </contour>
    <contour>
      <point x="269" y="527" type="move" name="top"/>
    </contour>
    <contour>
      <point x="270" y="0" type="move" name="bottom"/>
    </contour>
  </outline>
</glyph>
<glyph name="uni04E8" format="1">
  <advance width="692"/>
  <unicode hex="04E8"/>
  <outline>
    <contour>
      <point x="174" y="701"/>
      <point x="55" y="570"/>
      <point x="55" y="343" type="curve" smooth="yes"/>
      <point x="55" y="112"/>
      <point x="174" y="-12"/>
      <point x="346" y="-12" type="curve" smooth="yes"/>
      <point x="519" y="-12"/>
      <point x="637" y="116"/>
      <point x="637" y="344" type="curve" smooth="yes"/>
      <point x="637" y="576"/>
      <point x="519" y="701"/>
      <point x="346" y="701" type="curve" smooth="yes"/>
    </contour>
    <contour>
      <point x="464" y="623"/>
      <point x="540" y="542"/>
      <point x="540" y="344" type="curve" smooth="yes"/>
      <point x="540" y="144"/>
      <point x="462" y="66"/>
      <point x="346" y="66" type="curve" smooth="yes"/>
      <point x="234" y="66"/>
      <point x="152" y="144"/>
      <point x="152" y="343" type="curve" smooth="yes"/>
      <point x="152" y="542"/>
      <point x="231" y="623"/>
      <point x="346" y="623" type="curve" smooth="yes"/>
    </contour>
    <contour>
      <point x="127" y="386" type="line"/>
      <point x="126" y="316" type="line"/>
      <point x="565" y="316" type="line"/>
      <point x="565" y="386" type="line"/>
    </contour>
    <contour>
      <point x="346" y="689" type="move" name="top"/>
    </contour>
    <contour>
      <point x="346" y="0" type="move" name="bottom"/>
    </contour>
  </outline>
</glyph>
<glyph name="uni04E9" format="1">
  <advance width="584"/>
  <unicode hex="04E9"/>
  <outline>
    <contour>
      <point x="141" y="303" type="line"/>
      <point x="141" y="233" type="line"/>
      <point x="442" y="233" type="line"/>
      <point x="443" y="303" type="line"/>
    </contour>
    <contour>
      <point x="143" y="539"/>
      <point x="57" y="426"/>
      <point x="57" y="263" type="curve" smooth="yes"/>
      <point x="57" y="96"/>
      <point x="142" y="-12"/>
      <point x="292" y="-12" type="curve" smooth="yes"/>
      <point x="441" y="-12"/>
      <point x="527" y="101"/>
      <point x="527" y="264" type="curve" smooth="yes"/>
      <point x="527" y="431"/>
      <point x="443" y="539"/>
      <point x="293" y="539" type="curve" smooth="yes"/>
    </contour>
    <contour>
      <point x="381" y="466"/>
      <point x="430" y="402"/>
      <point x="430" y="264" type="curve" smooth="yes"/>
      <point x="430" y="125"/>
      <point x="381" y="61"/>
      <point x="292" y="61" type="curve" smooth="yes"/>
      <point x="203" y="61"/>
      <point x="154" y="125"/>
      <point x="154" y="263" type="curve" smooth="yes"/>
      <point x="154" y="402"/>
      <point x="204" y="466"/>
      <point x="293" y="466" type="curve" smooth="yes"/>
    </contour>
    <contour>
      <point x="291" y="527" type="move" name="top"/>
    </contour>
    <contour>
      <point x="292" y="0" type="move" name="bottom"/>
    </contour>
  </outline>
</glyph>
<glyph name="uni04FB" format="1">
  <advance width="441"/>
  <unicode hex="04FB"/>
  <outline>
    <contour>
      <point x="195" y="0" type="line"/>
      <point x="291" y="0" type="line"/>
      <point x="291" y="74" type="line"/>
      <point x="195" y="74" type="line"/>
    </contour>
    <component base="uni0493"/>
    <component base="hookHELPER" xOffset="-5"/>
    <contour>
      <point x="271" y="527" type="move" name="top"/>
    </contour>
    <contour>
      <point x="221" y="-202" type="move" name="bottom"/>
    </contour>
  </outline>
</glyph>
<glyph name="uni0504" format="1">
  <advance width="744"/>
  <unicode hex="0504"/>
  <outline>
    <contour>
      <point x="30" y="689" type="line"/>
      <point x="30" y="615" type="line"/>
      <point x="160" y="615" type="line" smooth="yes"/>
      <point x="273" y="615"/>
      <point x="322" y="580"/>
      <point x="322" y="494" type="curve" smooth="yes"/>
      <point x="322" y="401"/>
      <point x="267" y="365"/>
      <point x="171" y="365" type="curve" smooth="yes"/>
      <point x="69" y="365" type="line"/>
      <point x="69" y="292" type="line"/>
      <point x="189" y="292" type="line"/>
      <point x="344" y="312"/>
      <point x="423" y="372"/>
      <point x="423" y="494" type="curve" smooth="yes"/>
      <point x="423" y="623"/>
      <point x="333" y="689"/>
      <point x="161" y="689" type="curve" smooth="yes"/>
    </contour>
    <contour>
      <point x="590" y="380" type="line"/>
      <point x="593" y="338"/>
      <point x="595" y="299"/>
      <point x="595" y="263" type="curve" smooth="yes"/>
      <point x="595" y="106"/>
      <point x="549" y="62"/>
      <point x="485" y="62" type="curve" smooth="yes"/>
      <point x="435" y="62"/>
      <point x="404" y="88"/>
      <point x="372" y="142" type="curve" smooth="yes"/>
      <point x="269" y="317" type="line"/>
      <point x="174" y="306" type="line"/>
      <point x="280" y="123" type="line" smooth="yes"/>
      <point x="331" y="35"/>
      <point x="386" y="-12"/>
      <point x="483" y="-12" type="curve" smooth="yes"/>
      <point x="598" y="-12"/>
      <point x="688" y="66"/>
      <point x="688" y="255" type="curve" smooth="yes"/>
      <point x="688" y="300"/>
      <point x="686" y="341"/>
      <point x="683" y="380" type="curve"/>
    </contour>
    <contour>
      <point x="367" y="689" type="move" name="top"/>
    </contour>
    <contour>
      <point x="367" y="0" type="move" name="bottom"/>
    </contour>
  </outline>
</glyph>
<glyph name="uni0505" format="1">
  <advance width="673"/>
  <unicode hex="0505"/>
  <outline>
    <contour>
      <point x="535" y="-14"/>
      <point x="617" y="64"/>
      <point x="617" y="253" type="curve" smooth="yes"/>
      <point x="617" y="298"/>
      <point x="615" y="338"/>
      <point x="612" y="377" type="curve"/>
      <point x="519" y="377" type="line"/>
      <point x="522" y="335"/>
      <point x="524" y="297"/>
      <point x="524" y="251" type="curve" smooth="yes"/>
      <point x="524" y="104"/>
      <point x="482" y="60"/>
      <point x="419" y="60" type="curve" smooth="yes"/>
      <point x="380" y="60"/>
      <point x="353" y="77"/>
      <point x="317" y="132" type="curve" smooth="yes"/>
      <point x="248" y="238" type="line"/>
      <point x="161" y="225" type="line"/>
      <point x="229" y="117" type="line" smooth="yes"/>
      <point x="283" y="32"/>
      <point x="329" y="-14"/>
      <point x="418" y="-14" type="curve" smooth="yes"/>
    </contour>
    <contour>
      <point x="184" y="202" type="line"/>
      <point x="306" y="221"/>
      <point x="373" y="270"/>
      <point x="373" y="366" type="curve" smooth="yes"/>
      <point x="373" y="471"/>
      <point x="295" y="527"/>
      <point x="153" y="527" type="curve" smooth="yes"/>
      <point x="30" y="527" type="line"/>
      <point x="30" y="457" type="line"/>
      <point x="152" y="457" type="line" smooth="yes"/>
      <point x="235" y="457"/>
      <point x="277" y="430"/>
      <point x="277" y="366" type="curve" smooth="yes"/>
      <point x="277" y="298"/>
      <point x="235" y="272"/>
      <point x="165" y="272" type="curve" smooth="yes"/>
      <point x="69" y="272" type="line"/>
      <point x="69" y="202" type="line"/>
    </contour>
    <contour>
      <point x="332" y="527" type="move" name="top"/>
    </contour>
    <contour>
      <point x="332" y="0" type="move" name="bottom"/>
    </contour>
  </outline>
</glyph>
<glyph name="uni0506" format="1">
  <advance width="490"/>
  <unicode hex="0506"/>
  <outline>
    <contour>
      <point x="30" y="689" type="line"/>
      <point x="30" y="615" type="line"/>
      <point x="160" y="615" type="line" smooth="yes"/>
      <point x="273" y="615"/>
      <point x="322" y="580"/>
      <point x="322" y="494" type="curve" smooth="yes"/>
      <point x="322" y="401"/>
      <point x="267" y="365"/>
      <point x="171" y="365" type="curve" smooth="yes"/>
      <point x="69" y="365" type="line"/>
      <point x="69" y="292" type="line"/>
      <point x="189" y="292" type="line"/>
      <point x="344" y="312"/>
      <point x="423" y="372"/>
      <point x="423" y="494" type="curve" smooth="yes"/>
      <point x="423" y="623"/>
      <point x="333" y="689"/>
      <point x="161" y="689" type="curve" smooth="yes"/>
    </contour>
    <contour>
      <point x="174" y="306" type="line"/>
      <point x="347" y="0" type="line"/>
      <point x="460" y="0" type="line"/>
      <point x="269" y="317" type="line"/>
    </contour>
    <component base="descStraightcy.case" xOffset="340"/>
    <contour>
      <point x="247" y="689" type="move" name="top"/>
    </contour>
    <contour>
      <point x="247" y="-202" type="move" name="bottom"/>
    </contour>
  </outline>
</glyph>
<glyph name="uni0507" format="1">
  <advance width="426"/>
  <unicode hex="0507"/>
  <outline>
    <contour>
      <point x="184" y="202" type="line"/>
      <point x="306" y="221"/>
      <point x="373" y="270"/>
      <point x="373" y="366" type="curve" smooth="yes"/>
      <point x="373" y="471"/>
      <point x="295" y="527"/>
      <point x="153" y="527" type="curve" smooth="yes"/>
      <point x="30" y="527" type="line"/>
      <point x="30" y="457" type="line"/>
      <point x="152" y="457" type="line" smooth="yes"/>
      <point x="235" y="457"/>
      <point x="277" y="430"/>
      <point x="277" y="366" type="curve" smooth="yes"/>
      <point x="277" y="298"/>
      <point x="235" y="272"/>
      <point x="165" y="272" type="curve" smooth="yes"/>
      <point x="69" y="272" type="line"/>
      <point x="69" y="202" type="line"/>
    </contour>
    <contour>
      <point x="161" y="225" type="line"/>
      <point x="303" y="0" type="line"/>
      <point x="407" y="0" type="line"/>
      <point x="248" y="238" type="line"/>
    </contour>
    <component base="descStraightcy" xOffset="274"/>
    <contour>
      <point x="217" y="527" type="move" name="top"/>
    </contour>
    <contour>
      <point x="217" y="-202" type="move" name="bottom"/>
    </contour>
  </outline>
</glyph>
<glyph name="uni0514" format="1">
  <advance width="808"/>
  <unicode hex="0514"/>
  <outline>
    <contour>
      <point x="397" y="610" type="line"/>
      <point x="397" y="689" type="line"/>
      <point x="165" y="689" type="line"/>
      <point x="232" y="610" type="line"/>
    </contour>
    <contour>
      <point x="120" y="305" type="line" smooth="yes"/>
      <point x="99" y="126"/>
      <point x="89" y="90"/>
      <point x="14" y="62" type="curve"/>
      <point x="37" y="-12" type="line"/>
      <point x="152" y="25"/>
      <point x="188" y="66"/>
      <point x="215" y="312" type="curve" smooth="yes"/>
      <point x="248" y="609" type="line"/>
      <point x="165" y="689" type="line"/>
    </contour>
    <component base="X" xOffset="268"/>
    <contour>
      <point x="398" y="689" type="move" name="top"/>
    </contour>
    <contour>
      <point x="398" y="0" type="move" name="bottom"/>
    </contour>
  </outline>
</glyph>
<glyph name="uni0515" format="1">
  <advance width="699"/>
  <unicode hex="0515"/>
  <outline>
    <contour>
      <point x="209" y="454" type="line"/>
      <point x="336" y="454" type="line"/>
      <point x="336" y="527" type="line"/>
      <point x="142" y="527" type="line"/>
    </contour>
    <contour>
      <point x="142" y="527" type="line"/>
      <point x="121" y="286" type="line" smooth="yes"/>
      <point x="106" y="112"/>
      <point x="102" y="85"/>
      <point x="37" y="61" type="curve"/>
      <point x="60" y="-12" type="line"/>
      <point x="174" y="23"/>
      <point x="194" y="75"/>
      <point x="211" y="276" type="curve" smooth="yes"/>
      <point x="226" y="452" type="line"/>
    </contour>
    <component base="x" xOffset="214"/>
    <contour>
      <point x="383" y="527" type="move" name="top"/>
    </contour>
    <contour>
      <point x="383" y="0" type="move" name="bottom"/>
    </contour>
  </outline>
</glyph>
<glyph name="uni0518" format="1">
  <advance width="841"/>
  <unicode hex="0518"/>
  <outline>
    <contour>
      <point x="501" y="0" type="line"/>
      <point x="501" y="689" type="line"/>
      <point x="311" y="689" type="line" smooth="yes"/>
      <point x="136" y="689"/>
      <point x="48" y="609"/>
      <point x="48" y="477" type="curve" smooth="yes"/>
      <point x="48" y="389"/>
      <point x="94" y="319"/>
      <point x="185" y="286" type="curve"/>
      <point x="242" y="271" type="line"/>
      <point x="427" y="271" type="line"/>
      <point x="427" y="346" type="line"/>
      <point x="287" y="346" type="line" smooth="yes"/>
      <point x="206" y="346"/>
      <point x="149" y="388"/>
      <point x="149" y="477" type="curve" smooth="yes"/>
      <point x="149" y="569"/>
      <point x="196" y="615"/>
      <point x="317" y="615" type="curve" smooth="yes"/>
      <point x="411" y="615" type="line"/>
      <point x="411" y="0" type="line"/>
    </contour>
    <contour>
      <point x="138" y="0" type="line"/>
      <point x="278" y="285" type="line"/>
      <point x="189" y="306" type="line"/>
      <point x="30" y="0" type="line"/>
    </contour>
    <contour>
      <point x="787" y="0" type="line"/>
      <point x="787" y="76" type="line"/>
      <point x="506" y="76" type="line"/>
      <point x="506" y="312" type="line"/>
      <point x="733" y="312" type="line"/>
      <point x="733" y="388" type="line"/>
      <point x="506" y="388" type="line"/>
      <point x="506" y="613" type="line"/>
      <point x="768" y="613" type="line"/>
      <point x="779" y="689" type="line"/>
      <point x="414" y="689" type="line"/>
      <point x="414" y="0" type="line"/>
    </contour>
    <contour>
      <point x="426" y="689" type="move" name="top"/>
    </contour>
    <contour>
      <point x="426" y="0" type="move" name="bottom"/>
    </contour>
  </outline>
</glyph>
<glyph name="uni052D" format="1">
  <advance width="634"/>
  <unicode hex="052D"/>
  <outline>
    <contour>
      <point x="539" y="0" type="line"/>
      <point x="539" y="527" type="line"/>
      <point x="228" y="527" type="line"/>
      <point x="214" y="331" type="line" smooth="yes"/>
      <point x="201" y="148"/>
      <point x="132" y="100"/>
      <point x="93" y="74" type="curve"/>
      <point x="172" y="67" type="line"/>
      <point x="215" y="86"/>
      <point x="289" y="151"/>
      <point x="303" y="343" type="curve" smooth="yes"/>
      <point x="311" y="454" type="line"/>
      <point x="447" y="454" type="line"/>
      <point x="447" y="74" type="line"/>
      <point x="93" y="74" type="line"/>
      <point x="93" y="0" type="line"/>
    </contour>
    <contour>
      <point x="478" y="252" type="line"/>
      <point x="478" y="325" type="line"/>
      <point x="271" y="325" type="line" smooth="yes"/>
      <point x="199" y="325"/>
      <point x="160" y="349"/>
      <point x="160" y="436" type="curve" smooth="yes"/>
      <point x="160" y="527" type="line"/>
      <point x="70" y="527" type="line"/>
      <point x="70" y="434" type="line" smooth="yes"/>
      <point x="70" y="315"/>
      <point x="128" y="252"/>
      <point x="264" y="252" type="curve" smooth="yes"/>
    </contour>
    <component base="descStraightcy" xOffset="214" xScale="-1"/>
    <component base="descStraightcy" xOffset="435"/>
    <contour>
      <point x="313" y="527" type="move" name="top"/>
    </contour>
    <contour>
      <point x="313" y="-202" type="move" name="bottom"/>
    </contour>
  </outline>
</glyph>
<glyph name="uni0E3F" format="1">
  <advance width="594"/>
  <unicode hex="0E3F"/>
  <outline>
    <contour>
      <point x="263" y="17" type="line"/>
      <point x="263" y="-155" type="line"/>
      <point x="343" y="-155" type="line"/>
      <point x="343" y="12" type="line"/>
    </contour>
    <contour>
      <point x="263" y="824" type="line"/>
      <point x="263" y="663" type="line"/>
      <point x="343" y="655" type="line"/>
      <point x="343" y="824" type="line"/>
    </contour>
    <contour>
      <point x="100" y="669" type="line"/>
      <point x="100" y="0" type="line"/>
      <point x="284" y="0" type="line" smooth="yes"/>
      <point x="440" y="0"/>
      <point x="549" y="49"/>
      <point x="549" y="190" type="curve" smooth="yes"/>
      <point x="549" y="304"/>
      <point x="472" y="340"/>
      <point x="395" y="353" type="curve"/>
      <point x="460" y="367"/>
      <point x="520" y="417"/>
      <point x="520" y="500" type="curve" smooth="yes"/>
      <point x="520" y="617"/>
      <point x="423" y="669"/>
      <point x="258" y="669" type="curve" smooth="yes"/>
    </contour>
    <contour>
      <point x="367" y="597"/>
      <point x="426" y="576"/>
      <point x="426" y="493" type="curve" smooth="yes"/>
      <point x="426" y="422"/>
      <point x="368" y="385"/>
      <point x="293" y="385" type="curve" smooth="yes"/>
      <point x="177" y="385" type="line"/>
      <point x="177" y="314" type="line"/>
      <point x="302" y="314" type="line" smooth="yes"/>
      <point x="382" y="314"/>
      <point x="452" y="284"/>
      <point x="452" y="190" type="curve" smooth="yes"/>
      <point x="452" y="93"/>
      <point x="381" y="74"/>
      <point x="284" y="74" type="curve" smooth="yes"/>
      <point x="192" y="74" type="line"/>
      <point x="192" y="597" type="line"/>
      <point x="268" y="597" type="line" smooth="yes"/>
    </contour>
  </outline>
</glyph>
<glyph name="uni1D6C" format="1">
  <advance width="679"/>
  <unicode hex="1D6C"/>
  <outline>
    <contour>
      <point x="379" y="563"/>
      <point x="419" y="613"/>
      <point x="440" y="654" type="curve"/>
      <point x="385" y="684" type="line"/>
      <point x="369" y="658"/>
      <point x="345" y="636"/>
      <point x="312" y="636" type="curve" smooth="yes"/>
      <point x="270" y="636"/>
      <point x="236" y="697"/>
      <point x="159" y="697" type="curve" smooth="yes"/>
      <point x="84" y="697"/>
      <point x="43" y="641"/>
      <point x="22" y="600" type="curve"/>
      <point x="78" y="571" type="line"/>
      <point x="94" y="597"/>
      <point x="117" y="625"/>
      <point x="153" y="625" type="curve" smooth="yes"/>
      <point x="192" y="625"/>
      <point x="226" y="563"/>
      <point x="306" y="563" type="curve" smooth="yes"/>
    </contour>
    <component base="b" xOffset="90"/>
  </outline>
</glyph>
<glyph name="uni1D76" format="1">
  <advance width="448"/>
  <unicode hex="1D76"/>
  <outline>
    <contour>
      <point x="57" y="527" type="line"/>
      <point x="57" y="449" type="line"/>
      <point x="308" y="449" type="line"/>
      <point x="34" y="69" type="line"/>
      <point x="34" y="0" type="line"/>
      <point x="405" y="0" type="line"/>
      <point x="416" y="77" type="line"/>
      <point x="138" y="77" type="line"/>
      <point x="413" y="457" type="line"/>
      <point x="413" y="527" type="line"/>
    </contour>
    <contour>
      <point x="372" y="198"/>
      <point x="412" y="248"/>
      <point x="433" y="289" type="curve"/>
      <point x="378" y="319" type="line"/>
      <point x="362" y="293"/>
      <point x="338" y="271"/>
      <point x="305" y="271" type="curve" smooth="yes"/>
      <point x="263" y="271"/>
      <point x="229" y="332"/>
      <point x="152" y="332" type="curve" smooth="yes"/>
      <point x="77" y="332"/>
      <point x="36" y="276"/>
      <point x="15" y="235" type="curve"/>
      <point x="71" y="206" type="line"/>
      <point x="87" y="232"/>
      <point x="110" y="260"/>
      <point x="146" y="260" type="curve" smooth="yes"/>
      <point x="185" y="260"/>
      <point x="219" y="198"/>
      <point x="299" y="198" type="curve" smooth="yes"/>
    </contour>
    <contour>
      <point x="225" y="527" type="move" name="top"/>
    </contour>
    <contour>
      <point x="225" y="0" type="move" name="bottom"/>
    </contour>
  </outline>
</glyph>
<glyph name="uni1DC6" format="1">
  <advance width="411"/>
  <unicode hex="1DC6"/>
  <outline>
    <component base="uni1DC7" xOffset="411" xScale="-1"/>
    <contour>
      <point x="208" y="746" type="move" name="top"/>
    </contour>
    <contour>
      <point x="206" y="527" type="move" name="_top"/>
    </contour>
  </outline>
</glyph>
<glyph name="uni1DC8" format="1">
  <advance width="471"/>
  <unicode hex="1DC8"/>
  <outline>
    <component base="uni1DC9" xOffset="471" xScale="-1"/>
    <contour>
      <point x="238" y="795" type="move" name="top"/>
    </contour>
    <contour>
      <point x="236" y="527" type="move" name="_top"/>
    </contour>
  </outline>
</glyph>
<glyph name="uni1DC9" format="1">
  <advance width="471"/>
  <unicode hex="1DC9"/>
  <outline>
    <contour>
      <point x="441" y="738" type="line"/>
      <point x="400" y="795" type="line"/>
      <point x="283" y="717" type="line"/>
      <point x="165" y="795" type="line"/>
      <point x="30" y="698" type="line"/>
      <point x="58" y="653" type="line"/>
      <point x="166" y="715" type="line"/>
      <point x="283" y="653" type="line"/>
    </contour>
    <contour>
      <point x="238" y="795" type="move" name="top"/>
    </contour>
    <contour>
      <point x="236" y="527" type="move" name="_top"/>
    </contour>
  </outline>
</glyph>
<glyph name="uni1FBF" format="1">
  <advance width="174"/>
  <unicode hex="1FBF"/>
  <outline>
    <component base="uni0326" xOffset="-3" yOffset="879"/>
    <contour>
      <point x="172" y="792" type="move" name="_topleft"/>
    </contour>
    <contour>
      <point x="89" y="802" type="move" name="top"/>
    </contour>
    <contour>
      <point x="54" y="527" type="move" name="_top"/>
    </contour>
  </outline>
</glyph>
<glyph name="uni1FCD" format="1">
  <advance width="326"/>
  <unicode hex="1FCD"/>
  <outline>
    <contour>
      <point x="166" y="778" type="line"/>
      <point x="236" y="577" type="line"/>
      <point x="296" y="593" type="line"/>
      <point x="249" y="799" type="line"/>
    </contour>
    <component base="uni1FBF" xOffset="3"/>
    <contour>
      <point x="166" y="527" type="move" name="_top"/>
    </contour>
  </outline>
</glyph>
<glyph name="uni1FDD" format="1">
  <advance width="328"/>
  <unicode hex="1FDD"/>
  <outline>
    <contour>
      <point x="168" y="778" type="line"/>
      <point x="238" y="577" type="line"/>
      <point x="298" y="593" type="line"/>
      <point x="251" y="799" type="line"/>
    </contour>
    <component base="uni1FFE"/>
    <contour>
      <point x="188" y="527" type="move" name="_top"/>
    </contour>
  </outline>
</glyph>
<glyph name="uni1FFE" format="1">
  <advance width="180"/>
  <unicode hex="1FFE"/>
  <outline>
    <component base="uni0326" xOffset="180" yOffset="879" xScale="-1"/>
    <contour>
      <point x="192" y="792" type="move" name="_topleft"/>
    </contour>
    <contour>
      <point x="92" y="802" type="move" name="top"/>
    </contour>
    <contour>
      <point x="127" y="527" type="move" name="_top"/>
    </contour>
  </outline>
</glyph>
<glyph name="colonmonetary" format="1">
  <advance width="546"/>
  <unicode hex="20A1"/>
  <outline>
    <contour>
      <point x="148" y="-155" type="line"/>
      <point x="208" y="-155" type="line"/>
      <point x="362" y="824" type="line"/>
      <point x="302" y="824" type="line"/>
    </contour>
    <contour>
      <point x="257" y="-155" type="line"/>
      <point x="317" y="-155" type="line"/>
      <point x="471" y="824" type="line"/>
      <point x="411" y="824" type="line"/>
    </contour>
    <contour>
      <point x="181" y="679"/>
      <point x="55" y="560"/>
      <point x="55" y="335" type="curve" smooth="yes"/>
      <point x="55" y="110"/>
      <point x="173" y="-12"/>
      <point x="335" y="-12" type="curve" smooth="yes"/>
      <point x="425" y="-12"/>
      <point x="489" y="25"/>
      <point x="526" y="63" type="curve"/>
      <point x="480" y="121" type="line"/>
      <point x="442" y="93"/>
      <point x="401" y="66"/>
      <point x="338" y="66" type="curve" smooth="yes"/>
      <point x="234" y="66"/>
      <point x="153" y="142"/>
      <point x="153" y="335" type="curve" smooth="yes"/>
      <point x="153" y="535"/>
      <point x="238" y="603"/>
      <point x="339" y="603" type="curve" smooth="yes"/>
      <point x="385" y="603"/>
      <point x="426" y="588"/>
      <point x="468" y="554" type="curve"/>
      <point x="518" y="613" type="line"/>
      <point x="465" y="656"/>
      <point x="417" y="679"/>
      <point x="333" y="679" type="curve" smooth="yes"/>
    </contour>
  </outline>
</glyph>
<glyph name="uni20A6" format="1">
  <advance width="663"/>
  <unicode hex="20A6"/>
  <outline>
    <contour>
      <point x="25" y="311" type="line"/>
      <point x="25" y="252" type="line"/>
      <point x="638" y="252" type="line"/>
      <point x="638" y="311" type="line"/>
    </contour>
    <contour>
      <point x="25" y="423" type="line"/>
      <point x="25" y="363" type="line"/>
      <point x="638" y="363" type="line"/>
      <point x="638" y="423" type="line"/>
    </contour>
    <contour>
      <point x="479" y="669" type="line"/>
      <point x="479" y="304" type="line" smooth="yes"/>
      <point x="479" y="222"/>
      <point x="490" y="115"/>
      <point x="492" y="100" type="curve"/>
      <point x="217" y="669" type="line"/>
      <point x="97" y="669" type="line"/>
      <point x="97" y="0" type="line"/>
      <point x="183" y="0" type="line"/>
      <point x="183" y="307" type="line" smooth="yes"/>
      <point x="183" y="431"/>
      <point x="176" y="513"/>
      <point x="171" y="568" type="curve"/>
      <point x="442" y="0" type="line"/>
      <point x="566" y="0" type="line"/>
      <point x="566" y="669" type="line"/>
    </contour>
  </outline>
</glyph>
<glyph name="uni20A9" format="1">
  <advance width="813"/>
  <unicode hex="20A9"/>
  <outline>
    <contour>
      <point x="31" y="311" type="line"/>
      <point x="31" y="252" type="line"/>
      <point x="783" y="252" type="line"/>
      <point x="783" y="311" type="line"/>
    </contour>
    <contour>
      <point x="31" y="423" type="line"/>
      <point x="31" y="363" type="line"/>
      <point x="783" y="363" type="line"/>
      <point x="783" y="423" type="line"/>
    </contour>
    <contour>
      <point x="699" y="669" type="line"/>
      <point x="587" y="81" type="line"/>
      <point x="455" y="669" type="line"/>
      <point x="357" y="669" type="line"/>
      <point x="228" y="81" type="line"/>
      <point x="120" y="669" type="line"/>
      <point x="30" y="669" type="line"/>
      <point x="166" y="0" type="line"/>
      <point x="281" y="0" type="line"/>
      <point x="406" y="561" type="line"/>
      <point x="529" y="0" type="line"/>
      <point x="647" y="0" type="line"/>
      <point x="783" y="669" type="line"/>
    </contour>
  </outline>
</glyph>
<glyph name="uni20AA" format="1">
  <advance width="908"/>
  <unicode hex="20AA"/>
  <outline>
    <contour>
      <point x="606" y="0" type="line" smooth="yes"/>
      <point x="810" y="0"/>
      <point x="851" y="71"/>
      <point x="851" y="217" type="curve" smooth="yes"/>
      <point x="851" y="564" type="line"/>
      <point x="760" y="564" type="line"/>
      <point x="760" y="217" type="line" smooth="yes"/>
      <point x="760" y="103"/>
      <point x="720" y="80"/>
      <point x="606" y="80" type="curve" smooth="yes"/>
      <point x="306" y="80" type="line"/>
      <point x="306" y="0" type="line"/>
    </contour>
    <contour>
      <point x="174" y="0" type="line"/>
      <point x="174" y="294" type="line" smooth="yes"/>
      <point x="174" y="388"/>
      <point x="176" y="458"/>
      <point x="183" y="497" type="curve"/>
      <point x="131" y="497" type="line"/>
      <point x="99" y="451"/>
      <point x="82" y="398"/>
      <point x="82" y="300" type="curve" smooth="yes"/>
      <point x="82" y="0" type="line"/>
    </contour>
    <contour>
      <point x="397" y="0" type="line"/>
      <point x="397" y="381" type="line"/>
      <point x="306" y="381" type="line"/>
      <point x="306" y="0" type="line"/>
    </contour>
    <contour>
      <point x="627" y="171" type="line"/>
      <point x="627" y="347" type="line" smooth="yes"/>
      <point x="627" y="518"/>
      <point x="546" y="564"/>
      <point x="382" y="564" type="curve" smooth="yes"/>
      <point x="57" y="564" type="line"/>
      <point x="57" y="484" type="line"/>
      <point x="382" y="484" type="line" smooth="yes"/>
      <point x="482" y="484"/>
      <point x="534" y="457"/>
      <point x="534" y="334" type="curve" smooth="yes"/>
      <point x="534" y="171" type="line"/>
    </contour>
  </outline>
</glyph>
<glyph name="uni20B4" format="1">
  <advance width="534"/>
  <unicode hex="20B4"/>
  <outline>
    <contour>
      <point x="181" y="679"/>
      <point x="122" y="652"/>
      <point x="64" y="602" type="curve"/>
      <point x="115" y="545" type="line"/>
      <point x="165" y="586"/>
      <point x="212" y="604"/>
      <point x="270" y="604" type="curve" smooth="yes"/>
      <point x="337" y="604"/>
      <point x="388" y="572"/>
      <point x="388" y="508" type="curve" smooth="yes"/>
      <point x="388" y="443"/>
      <point x="361" y="416"/>
      <point x="241" y="379" type="curve" smooth="yes"/>
      <point x="134" y="346"/>
      <point x="43" y="310"/>
      <point x="43" y="182" type="curve" smooth="yes"/>
      <point x="43" y="66"/>
      <point x="130" y="-12"/>
      <point x="282" y="-12" type="curve" smooth="yes"/>
      <point x="378" y="-12"/>
      <point x="453" y="20"/>
      <point x="509" y="74" type="curve"/>
      <point x="459" y="131" type="line"/>
      <point x="408" y="90"/>
      <point x="356" y="64"/>
      <point x="283" y="64" type="curve" smooth="yes"/>
      <point x="204" y="64"/>
      <point x="139" y="99"/>
      <point x="139" y="179" type="curve" smooth="yes"/>
      <point x="139" y="254"/>
      <point x="170" y="287"/>
      <point x="284" y="322" type="curve" smooth="yes"/>
      <point x="414" y="362"/>
      <point x="482" y="402"/>
      <point x="482" y="509" type="curve" smooth="yes"/>
      <point x="482" y="610"/>
      <point x="395" y="679"/>
      <point x="272" y="679" type="curve" smooth="yes"/>
    </contour>
    <contour>
      <point x="25" y="311" type="line"/>
      <point x="25" y="252" type="line"/>
      <point x="494" y="252" type="line"/>
      <point x="494" y="311" type="line"/>
    </contour>
    <contour>
      <point x="25" y="423" type="line"/>
      <point x="25" y="363" type="line"/>
      <point x="494" y="363" type="line"/>
      <point x="494" y="423" type="line"/>
    </contour>
  </outline>
</glyph>
<glyph name="uni2116" format="1">
  <advance width="1122"/>
  <unicode hex="2116"/>
  <outline>
    <contour>
      <point x="750" y="689"/>
      <point x="678" y="605"/>
      <point x="678" y="480" type="curve" smooth="yes"/>
      <point x="678" y="351"/>
      <point x="749" y="271"/>
      <point x="872" y="271" type="curve" smooth="yes"/>
      <point x="995" y="271"/>
      <point x="1066" y="356"/>
      <point x="1066" y="480" type="curve" smooth="yes"/>
      <point x="1066" y="609"/>
      <point x="996" y="689"/>
      <point x="873" y="689" type="curve" smooth="yes"/>
    </contour>
    <contour>
      <point x="937" y="620"/>
      <point x="971" y="577"/>
      <point x="971" y="480" type="curve" smooth="yes"/>
      <point x="971" y="384"/>
      <point x="937" y="340"/>
      <point x="872" y="340" type="curve" smooth="yes"/>
      <point x="808" y="340"/>
      <point x="773" y="384"/>
      <point x="773" y="480" type="curve" smooth="yes"/>
      <point x="773" y="576"/>
      <point x="808" y="620"/>
      <point x="873" y="620" type="curve" smooth="yes"/>
    </contour>
    <component base="N"/>
    <component base="minus" xOffset="622" yOffset="-294"/>
  </outline>
</glyph>
<glyph name="notequal" format="1">
  <advance width="500"/>
  <unicode hex="2260"/>
  <outline>
    <contour>
      <point x="75" y="90" type="line"/>
      <point x="126" y="61" type="line"/>
      <point x="427" y="569" type="line"/>
      <point x="377" y="596" type="line"/>
    </contour>
    <component base="equal"/>
  </outline>
</glyph>
<glyph name="acute.case.loclPLK" format="1">
  <advance width="237"/>
  <outline>
    <contour>
      <point x="30" y="762" type="line"/>
      <point x="75" y="734" type="line"/>
      <point x="207" y="879" type="line"/>
      <point x="135" y="926" type="line"/>
    </contour>
    <contour>
      <point x="83" y="689" type="move" name="_top"/>
    </contour>
  </outline>
</glyph>
<glyph name="acute.sc.loclPLK" format="1">
  <advance width="236"/>
  <outline>
    <contour>
      <point x="30" y="647" type="line"/>
      <point x="75" y="619" type="line"/>
      <point x="206" y="772" type="line"/>
      <point x="134" y="819" type="line"/>
    </contour>
    <contour>
      <point x="83" y="564" type="move" name="_top"/>
    </contour>
  </outline>
</glyph>
<glyph name="acutecomb.case" format="1">
  <advance width="300"/>
  <outline>
    <contour>
      <point x="30" y="804" type="line"/>
      <point x="54" y="755" type="line"/>
      <point x="270" y="834" type="line"/>
      <point x="230" y="911" type="line"/>
    </contour>
    <contour>
      <point x="152" y="911" type="move" name="top"/>
    </contour>
    <contour>
      <point x="150" y="689" type="move" name="_top"/>
    </contour>
  </outline>
</glyph>
<glyph name="breveacute" format="1">
  <advance width="363"/>
  <outline>
    <component base="uni0306.case" yOffset="-160"/>
    <component base="acutedbl" xOffset="114" yOffset="107"/>
    <contour>
      <point x="182" y="527" type="move" name="_top"/>
    </contour>
  </outline>
</glyph>
<glyph name="circumflexacute" format="1">
  <advance width="502"/>
  <outline>
    <component base="uni0302.case" yOffset="-170"/>
    <component base="acutedbl" xOffset="259" yOffset="89"/>
    <contour>
      <point x="201" y="527" type="move" name="_top"/>
    </contour>
  </outline>
</glyph>
<glyph name="circumflexgrave.case" format="1">
  <advance width="492"/>
  <outline>
    <component base="uni0302.case" xOffset="100" yOffset="-43"/>
    <component base="gravedbl" xOffset="-14" yOffset="216"/>
    <contour>
      <point x="298" y="689" type="move" name="_top"/>
    </contour>
  </outline>
</glyph>
<glyph name="circumflexhookabove" format="1">
  <advance width="490"/>
  <outline>
    <component base="uni0302.case" yOffset="-170"/>
    <component base="hookabovecomb" xOffset="228" yOffset="105"/>
    <contour>
      <point x="201" y="527" type="move" name="_top"/>
    </contour>
  </outline>
</glyph>
<glyph name="colonmonetary.tosf" format="1">
  <advance width="560"/>
  <outline>
    <contour>
      <point x="147" y="-155" type="line"/>
      <point x="207" y="-155" type="line"/>
      <point x="361" y="824" type="line"/>
      <point x="301" y="824" type="line"/>
    </contour>
    <contour>
      <point x="256" y="-155" type="line"/>
      <point x="316" y="-155" type="line"/>
      <point x="470" y="824" type="line"/>
      <point x="410" y="824" type="line"/>
    </contour>
    <contour>
      <point x="180" y="679"/>
      <point x="54" y="560"/>
      <point x="54" y="335" type="curve" smooth="yes"/>
      <point x="54" y="110"/>
      <point x="172" y="-12"/>
      <point x="334" y="-12" type="curve" smooth="yes"/>
      <point x="424" y="-12"/>
      <point x="488" y="25"/>
      <point x="525" y="63" type="curve"/>
      <point x="479" y="121" type="line"/>
      <point x="441" y="93"/>
      <point x="400" y="66"/>
      <point x="337" y="66" type="curve" smooth="yes"/>
      <point x="233" y="66"/>
      <point x="152" y="142"/>
      <point x="152" y="335" type="curve" smooth="yes"/>
      <point x="152" y="535"/>
      <point x="237" y="603"/>
      <point x="338" y="603" type="curve" smooth="yes"/>
      <point x="384" y="603"/>
      <point x="425" y="588"/>
      <point x="467" y="554" type="curve"/>
      <point x="517" y="613" type="line"/>
      <point x="464" y="656"/>
      <point x="416" y="679"/>
      <point x="332" y="679" type="curve" smooth="yes"/>
    </contour>
  </outline>
</glyph>
<glyph name="dieresisNARROWcomb" format="1">
  <advance width="365"/>
  <outline>
    <contour>
      <point x="245" y="768"/>
      <point x="220" y="743"/>
      <point x="220" y="711" type="curve" smooth="yes"/>
      <point x="220" y="679"/>
      <point x="245" y="654"/>
      <point x="277" y="654" type="curve" smooth="yes"/>
      <point x="310" y="654"/>
      <point x="335" y="679"/>
      <point x="335" y="711" type="curve" smooth="yes"/>
      <point x="335" y="743"/>
      <point x="310" y="768"/>
      <point x="277" y="768" type="curve" smooth="yes"/>
    </contour>
    <contour>
      <point x="55" y="768"/>
      <point x="30" y="743"/>
      <point x="30" y="711" type="curve" smooth="yes"/>
      <point x="30" y="679"/>
      <point x="55" y="654"/>
      <point x="88" y="654" type="curve" smooth="yes"/>
      <point x="120" y="654"/>
      <point x="145" y="679"/>
      <point x="145" y="711" type="curve" smooth="yes"/>
      <point x="145" y="743"/>
      <point x="120" y="768"/>
      <point x="88" y="768" type="curve" smooth="yes"/>
    </contour>
    <contour>
      <point x="185" y="768" type="move" name="top"/>
    </contour>
    <contour>
      <point x="183" y="527" type="move" name="_top"/>
    </contour>
  </outline>
</glyph>
<glyph name="dieresiscaroncomb.case" format="1">
  <advance width="392"/>
  <outline>
    <contour>
      <point x="61" y="860"/>
      <point x="36" y="835"/>
      <point x="36" y="803" type="curve" smooth="yes"/>
      <point x="36" y="771"/>
      <point x="61" y="746"/>
      <point x="94" y="746" type="curve" smooth="yes"/>
      <point x="126" y="746"/>
      <point x="151" y="771"/>
      <point x="151" y="803" type="curve" smooth="yes"/>
      <point x="151" y="835"/>
      <point x="126" y="860"/>
      <point x="94" y="860" type="curve" smooth="yes"/>
    </contour>
    <contour>
      <point x="271" y="860"/>
      <point x="246" y="835"/>
      <point x="246" y="803" type="curve" smooth="yes"/>
      <point x="246" y="771"/>
      <point x="271" y="746"/>
      <point x="303" y="746" type="curve" smooth="yes"/>
      <point x="336" y="746"/>
      <point x="361" y="771"/>
      <point x="361" y="803" type="curve" smooth="yes"/>
      <point x="361" y="835"/>
      <point x="336" y="860"/>
      <point x="303" y="860" type="curve" smooth="yes"/>
    </contour>
    <component base="uni030C.case" yOffset="112"/>
    <contour>
      <point x="199" y="689" type="move" name="_top"/>
    </contour>
  </outline>
</glyph>
<glyph name="dieresiscaroncomb" format="1">
  <advance width="392"/>
  <outline>
    <contour>
      <point x="59" y="738"/>
      <point x="34" y="713"/>
      <point x="34" y="681" type="curve" smooth="yes"/>
      <point x="34" y="649"/>
      <point x="59" y="624"/>
      <point x="92" y="624" type="curve" smooth="yes"/>
      <point x="124" y="624"/>
      <point x="149" y="649"/>
      <point x="149" y="681" type="curve" smooth="yes"/>
      <point x="149" y="713"/>
      <point x="124" y="738"/>
      <point x="92" y="738" type="curve" smooth="yes"/>
    </contour>
    <contour>
      <point x="269" y="738"/>
      <point x="244" y="713"/>
      <point x="244" y="681" type="curve" smooth="yes"/>
      <point x="244" y="649"/>
      <point x="269" y="624"/>
      <point x="301" y="624" type="curve" smooth="yes"/>
      <point x="334" y="624"/>
      <point x="359" y="649"/>
      <point x="359" y="681" type="curve" smooth="yes"/>
      <point x="359" y="713"/>
      <point x="334" y="738"/>
      <point x="301" y="738" type="curve" smooth="yes"/>
    </contour>
    <component base="uni030C.case" yOffset="-10"/>
    <contour>
      <point x="196" y="527" type="move" name="_top"/>
    </contour>
  </outline>
</glyph>
<glyph name="dieresismacroncomb.case" format="1">
  <advance width="385"/>
  <outline>
    <component base="uni0308" yOffset="92"/>
    <component base="uni0304" xOffset="28" yOffset="236"/>
    <contour>
      <point x="193" y="689" type="move" name="_top"/>
    </contour>
  </outline>
</glyph>
<glyph name="dollar.tf" format="1">
  <advance width="560"/>
  <outline>
    <contour>
      <point x="244" y="-1" type="line"/>
      <point x="244" y="-154" type="line"/>
      <point x="324" y="-154" type="line"/>
      <point x="324" y="8" type="line"/>
    </contour>
    <contour>
      <point x="244" y="847" type="line"/>
      <point x="244" y="669" type="line"/>
      <point x="324" y="671" type="line"/>
      <point x="324" y="847" type="line"/>
    </contour>
    <contour>
      <point x="155" y="701"/>
      <point x="67" y="628"/>
      <point x="67" y="523" type="curve" smooth="yes"/>
      <point x="67" y="417"/>
      <point x="136" y="367"/>
      <point x="267" y="327" type="curve" smooth="yes"/>
      <point x="382" y="292"/>
      <point x="413" y="262"/>
      <point x="413" y="195" type="curve" smooth="yes"/>
      <point x="413" y="112"/>
      <point x="347" y="73"/>
      <point x="268" y="73" type="curve" smooth="yes"/>
      <point x="194" y="73"/>
      <point x="139" y="99"/>
      <point x="91" y="141" type="curve"/>
      <point x="40" y="83" type="line"/>
      <point x="95" y="29"/>
      <point x="172" y="-4"/>
      <point x="269" y="-4" type="curve" smooth="yes"/>
      <point x="421" y="-4"/>
      <point x="510" y="79"/>
      <point x="510" y="198" type="curve" smooth="yes"/>
      <point x="510" y="329"/>
      <point x="418" y="371"/>
      <point x="310" y="404" type="curve" smooth="yes"/>
      <point x="188" y="441"/>
      <point x="162" y="469"/>
      <point x="162" y="527" type="curve" smooth="yes"/>
      <point x="162" y="593"/>
      <point x="216" y="625"/>
      <point x="284" y="625" type="curve" smooth="yes"/>
      <point x="340" y="625"/>
      <point x="388" y="607"/>
      <point x="438" y="567" type="curve"/>
      <point x="488" y="623" type="line"/>
      <point x="433" y="674"/>
      <point x="374" y="701"/>
      <point x="280" y="701" type="curve" smooth="yes"/>
    </contour>
  </outline>
</glyph>
<glyph name="dotmacroncomb.case" format="1">
  <advance width="333"/>
  <outline>
    <component base="uni0307.case" xOffset="70" yOffset="-40"/>
    <component base="uni0304.case" yOffset="111"/>
    <contour>
      <point x="162" y="689" type="move" name="_top"/>
    </contour>
  </outline>
</glyph>
<glyph name="f_f" format="1">
  <advance width="610"/>
  <outline>
    <contour>
      <point x="151" y="740"/>
      <point x="94" y="677"/>
      <point x="94" y="589" type="curve" smooth="yes"/>
      <point x="94" y="0" type="line"/>
      <point x="186" y="0" type="line"/>
      <point x="186" y="590" type="line" smooth="yes"/>
      <point x="186" y="641"/>
      <point x="207" y="666"/>
      <point x="274" y="666" type="curve" smooth="yes"/>
      <point x="321" y="666"/>
      <point x="355" y="658"/>
      <point x="406" y="637" type="curve"/>
      <point x="429" y="701" type="line"/>
      <point x="367" y="730"/>
      <point x="326" y="740"/>
      <point x="268" y="740" type="curve" smooth="yes"/>
    </contour>
    <contour>
      <point x="10" y="527" type="line"/>
      <point x="10" y="456" type="line"/>
      <point x="304" y="456" type="line"/>
      <point x="314" y="527" type="line"/>
    </contour>
    <component base="f" xOffset="275"/>
  </outline>
</glyph>
<glyph name="f_f_i" format="1">
  <advance width="860"/>
  <outline>
    <contour>
      <point x="151" y="740"/>
      <point x="94" y="677"/>
      <point x="94" y="589" type="curve" smooth="yes"/>
      <point x="94" y="0" type="line"/>
      <point x="186" y="0" type="line"/>
      <point x="186" y="590" type="line" smooth="yes"/>
      <point x="186" y="641"/>
      <point x="207" y="666"/>
      <point x="274" y="666" type="curve" smooth="yes"/>
      <point x="321" y="666"/>
      <point x="355" y="658"/>
      <point x="406" y="637" type="curve"/>
      <point x="429" y="701" type="line"/>
      <point x="367" y="730"/>
      <point x="326" y="740"/>
      <point x="268" y="740" type="curve" smooth="yes"/>
    </contour>
    <contour>
      <point x="10" y="527" type="line"/>
      <point x="10" y="456" type="line"/>
      <point x="304" y="456" type="line"/>
      <point x="314" y="527" type="line"/>
    </contour>
    <component base="f_i" xOffset="285"/>
  </outline>
</glyph>
<glyph name="f_j" format="1">
  <advance width="575"/>
  <outline>
    <contour>
      <point x="148" y="750"/>
      <point x="94" y="685"/>
      <point x="94" y="596" type="curve" smooth="yes"/>
      <point x="94" y="527" type="line"/>
      <point x="10" y="527" type="line"/>
      <point x="10" y="456" type="line"/>
      <point x="94" y="456" type="line"/>
      <point x="94" y="0" type="line"/>
      <point x="186" y="0" type="line"/>
      <point x="186" y="456" type="line"/>
      <point x="388" y="456" type="line"/>
      <point x="480" y="527" type="line"/>
      <point x="186" y="527" type="line"/>
      <point x="186" y="597" type="line" smooth="yes"/>
      <point x="186" y="647"/>
      <point x="205" y="675"/>
      <point x="279" y="675" type="curve" smooth="yes"/>
      <point x="320" y="675"/>
      <point x="357" y="666"/>
      <point x="390" y="650" type="curve"/>
      <point x="422" y="714" type="line"/>
      <point x="379" y="736"/>
      <point x="335" y="750"/>
      <point x="276" y="750" type="curve" smooth="yes"/>
    </contour>
    <contour>
      <point x="388" y="527" type="line"/>
      <point x="388" y="26" type="line" smooth="yes"/>
      <point x="388" y="-87"/>
      <point x="355" y="-113"/>
      <point x="286" y="-145" type="curve"/>
      <point x="313" y="-212" type="line"/>
      <point x="425" y="-162"/>
      <point x="480" y="-117"/>
      <point x="480" y="32" type="curve" smooth="yes"/>
      <point x="480" y="527" type="line"/>
    </contour>
  </outline>
</glyph>
<glyph name="f_t" format="1">
  <advance width="635"/>
  <outline>
    <contour>
      <point x="151" y="750"/>
      <point x="94" y="687"/>
      <point x="94" y="599" type="curve" smooth="yes"/>
      <point x="94" y="0" type="line"/>
      <point x="186" y="0" type="line"/>
      <point x="186" y="600" type="line" smooth="yes"/>
      <point x="186" y="651"/>
      <point x="207" y="676"/>
      <point x="274" y="676" type="curve" smooth="yes"/>
      <point x="317" y="676"/>
      <point x="347" y="671"/>
      <point x="386" y="657" type="curve"/>
      <point x="405" y="721" type="line"/>
      <point x="357" y="739"/>
      <point x="320" y="750"/>
      <point x="268" y="750" type="curve" smooth="yes"/>
    </contour>
    <contour>
      <point x="10" y="527" type="line"/>
      <point x="10" y="456" type="line"/>
      <point x="304" y="456" type="line"/>
      <point x="314" y="527" type="line"/>
    </contour>
    <contour>
      <point x="375" y="730" type="line"/>
      <point x="375" y="138" type="line" smooth="yes"/>
      <point x="375" y="40"/>
      <point x="428" y="-12"/>
      <point x="517" y="-12" type="curve" smooth="yes"/>
      <point x="562" y="-12"/>
      <point x="600" y="0"/>
      <point x="635" y="24" type="curve"/>
      <point x="600" y="85" type="line"/>
      <point x="574" y="71"/>
      <point x="553" y="64"/>
      <point x="530" y="64" type="curve" smooth="yes"/>
      <point x="484" y="64"/>
      <point x="467" y="89"/>
      <point x="467" y="142" type="curve" smooth="yes"/>
      <point x="467" y="742" type="line"/>
    </contour>
    <contour>
      <point x="285" y="527" type="line"/>
      <point x="285" y="456" type="line"/>
      <point x="582" y="456" type="line"/>
      <point x="592" y="527" type="line"/>
    </contour>
  </outline>
</glyph>
<glyph name="gravedbl" format="1">
  <advance width="248"/>
  <outline>
    <contour>
      <point x="44" y="749" type="line"/>
      <point x="180" y="623" type="line"/>
      <point x="218" y="658" type="line"/>
      <point x="100" y="803" type="line"/>
    </contour>
    <contour>
      <point x="199" y="527" type="move" name="_topleft"/>
    </contour>
    <contour>
      <point x="179" y="527" type="move" name="_top"/>
    </contour>
  </outline>
</glyph>
<glyph name="hbar.sc" format="1">
  <advance width="626"/>
  <outline>
    <contour>
      <point x="525" y="490" type="line"/>
      <point x="42" y="490" type="line"/>
      <point x="42" y="422" type="line"/>
      <point x="101" y="422" type="line"/>
      <point x="584" y="422" type="line"/>
      <point x="584" y="490" type="line"/>
    </contour>
    <component base="h.sc" xOffset="1"/>
  </outline>
</glyph>
<glyph name="lambda.sc" format="1">
  <advance width="505"/>
  <outline>
    <contour>
      <point x="196" y="564" type="line"/>
      <point x="6" y="0" type="line"/>
      <point x="100" y="0" type="line"/>
      <point x="252" y="489" type="line"/>
      <point x="402" y="0" type="line"/>
      <point x="499" y="0" type="line"/>
      <point x="310" y="564" type="line"/>
    </contour>
    <contour>
      <point x="253" y="564" type="move" name="top"/>
    </contour>
    <contour>
      <point x="246" y="0" type="move" name="bottom"/>
    </contour>
  </outline>
</glyph>
<glyph name="lslash.sc" format="1">
  <advance width="461"/>
  <outline>
    <contour>
      <point x="107" y="271" type="line"/>
      <point x="22" y="218" type="line"/>
      <point x="57" y="162" type="line"/>
      <point x="374" y="358" type="line"/>
      <point x="339" y="414" type="line"/>
    </contour>
    <component base="l.sc" xOffset="5"/>
  </outline>
</glyph>
<glyph name="product.tf" format="1">
  <advance width="560"/>
  <outline>
    <contour>
      <point x="50" y="689" type="line"/>
      <point x="50" y="613" type="line"/>
      <point x="122" y="613" type="line"/>
      <point x="122" y="-213" type="line"/>
      <point x="212" y="-202" type="line"/>
      <point x="212" y="613" type="line"/>
      <point x="353" y="613" type="line"/>
      <point x="353" y="-213" type="line"/>
      <point x="443" y="-202" type="line"/>
      <point x="443" y="613" type="line"/>
      <point x="510" y="613" type="line"/>
      <point x="510" y="689" type="line"/>
    </contour>
  </outline>
</glyph>
<glyph name="product.tosf" format="1">
  <advance width="460"/>
  <outline>
    <contour>
      <point x="460" y="669" type="line"/>
      <point x="0" y="669" type="line"/>
      <point x="0" y="593" type="line"/>
      <point x="72" y="593" type="line"/>
      <point x="72" y="-213" type="line"/>
      <point x="162" y="-202" type="line"/>
      <point x="162" y="593" type="line"/>
      <point x="303" y="593" type="line"/>
      <point x="303" y="-213" type="line"/>
      <point x="393" y="-202" type="line"/>
      <point x="393" y="593" type="line"/>
      <point x="460" y="593" type="line"/>
    </contour>
  </outline>
</glyph>
<glyph name="tbar.sc" format="1">
  <advance width="456"/>
  <outline>
    <contour>
      <point x="391" y="347" type="line"/>
      <point x="275" y="347" type="line"/>
      <point x="67" y="347" type="line"/>
      <point x="67" y="283" type="line"/>
      <point x="183" y="283" type="line"/>
      <point x="391" y="283" type="line"/>
    </contour>
    <component base="t.sc"/>
  </outline>
</glyph>
<glyph name="tildeacute" format="1">
  <advance width="394"/>
  <outline>
    <component base="tildecomb" yOffset="-60"/>
    <component base="acutecomb.case" xOffset="47" yOffset="-19"/>
    <contour>
      <point x="197" y="527" type="move" name="_top"/>
    </contour>
  </outline>
</glyph>
<glyph name="tonos.case" format="1">
  <advance width="161"/>
  <outline>
    <contour>
      <point x="30" y="486" type="line"/>
      <point x="96" y="486" type="line"/>
      <point x="131" y="689" type="line"/>
      <point x="33" y="697" type="line"/>
    </contour>
    <contour>
      <point x="158" y="689" type="move" name="_topleft"/>
    </contour>
  </outline>
</glyph>
<glyph name="tsehelpercy.sc" format="1">
  <advance width="622"/>
  <outline>
    <contour>
      <point x="430" y="75" type="line"/>
      <point x="192" y="75" type="line"/>
      <point x="192" y="564" type="line"/>
      <point x="100" y="564" type="line"/>
      <point x="100" y="0" type="line"/>
      <point x="522" y="0" type="line"/>
      <point x="522" y="564" type="line"/>
      <point x="430" y="564" type="line"/>
    </contour>
    <contour>
      <point x="311" y="0" type="move" name="bottom"/>
    </contour>
    <contour>
      <point x="532" y="0" type="move" name="bottomright"/>
    </contour>
  </outline>
</glyph>
<glyph name="underscore.001" format="1">
  <advance width="520"/>
  <outline>
    <contour>
      <point x="503" y="-142" type="line"/>
      <point x="503" y="-63" type="line"/>
      <point x="17" y="-63" type="line"/>
      <point x="17" y="-142" type="line"/>
    </contour>
  </outline>
</glyph>
<glyph name="uni01AD.sc" format="1">
  <advance width="485"/>
  <outline>
    <contour>
      <point x="10" y="418"/>
      <point x="26" y="388"/>
      <point x="42" y="364" type="curve"/>
      <point x="107" y="396" type="line"/>
      <point x="99" y="413"/>
      <point x="91" y="429"/>
      <point x="91" y="450" type="curve" smooth="yes"/>
      <point x="91" y="475"/>
      <point x="105" y="488"/>
      <point x="129" y="488" type="curve" smooth="yes"/>
      <point x="161" y="488" type="line"/>
      <point x="158" y="564" type="line"/>
      <point x="138" y="564" type="line" smooth="yes"/>
      <point x="59" y="564"/>
      <point x="10" y="519"/>
      <point x="10" y="455" type="curve" smooth="yes"/>
    </contour>
    <contour>
      <point x="158" y="564" type="line"/>
      <point x="157" y="488" type="line"/>
      <point x="212" y="488" type="line"/>
      <point x="212" y="0" type="line"/>
      <point x="304" y="0" type="line"/>
      <point x="304" y="488" type="line"/>
      <point x="465" y="488" type="line"/>
      <point x="475" y="564" type="line"/>
    </contour>
    <contour>
      <point x="258" y="564" type="move" name="top"/>
    </contour>
    <contour>
      <point x="258" y="0" type="move" name="bottom"/>
    </contour>
  </outline>
</glyph>
<glyph name="uni01F6.sc" format="1">
  <advance width="868"/>
  <outline>
    <contour>
      <point x="433" y="564" type="line"/>
      <point x="433" y="334" type="line"/>
      <point x="192" y="334" type="line"/>
      <point x="192" y="564" type="line"/>
      <point x="100" y="564" type="line"/>
      <point x="100" y="0" type="line"/>
      <point x="192" y="0" type="line"/>
      <point x="192" y="259" type="line"/>
      <point x="433" y="259" type="line"/>
      <point x="433" y="166" type="line"/>
      <point x="525" y="146" type="line"/>
      <point x="525" y="564" type="line"/>
    </contour>
    <contour>
      <point x="696" y="-11"/>
      <point x="798" y="54"/>
      <point x="798" y="238" type="curve" smooth="yes"/>
      <point x="798" y="315"/>
      <point x="796" y="348"/>
      <point x="793" y="431" type="curve"/>
      <point x="703" y="431" type="line"/>
      <point x="706" y="347"/>
      <point x="708" y="315"/>
      <point x="708" y="240" type="curve" smooth="yes"/>
      <point x="708" y="92"/>
      <point x="650" y="61"/>
      <point x="601" y="61" type="curve" smooth="yes"/>
      <point x="555" y="61"/>
      <point x="525" y="83"/>
      <point x="525" y="142" type="curve" smooth="yes"/>
      <point x="525" y="433" type="line"/>
      <point x="433" y="433" type="line"/>
      <point x="433" y="158" type="line" smooth="yes"/>
      <point x="433" y="36"/>
      <point x="508" y="-11"/>
      <point x="598" y="-11" type="curve" smooth="yes"/>
    </contour>
  </outline>
</glyph>
<glyph name="uni0220.sc" format="1">
  <advance width="609"/>
  <outline>
    <contour>
      <point x="282" y="576"/>
      <point x="217" y="532"/>
      <point x="175" y="470" type="curve"/>
      <point x="188" y="411" type="line"/>
      <point x="232" y="467"/>
      <point x="277" y="504"/>
      <point x="339" y="504" type="curve" smooth="yes"/>
      <point x="391" y="504"/>
      <point x="424" y="479"/>
      <point x="424" y="395" type="curve" smooth="yes"/>
      <point x="424" y="-202" type="line"/>
      <point x="516" y="-202" type="line"/>
      <point x="516" y="408" type="line" smooth="yes"/>
      <point x="516" y="513"/>
      <point x="460" y="576"/>
      <point x="358" y="576" type="curve" smooth="yes"/>
    </contour>
    <contour>
      <point x="100" y="564" type="line"/>
      <point x="100" y="0" type="line"/>
      <point x="192" y="0" type="line"/>
      <point x="192" y="435" type="line"/>
      <point x="179" y="564" type="line"/>
    </contour>
    <contour>
      <point x="305" y="564" type="move" name="top"/>
    </contour>
    <contour>
      <point x="305" y="-202" type="move" name="bottom"/>
    </contour>
  </outline>
</glyph>
<glyph name="uni0247.sc" format="1">
  <advance width="490"/>
  <outline>
    <contour>
      <point x="159" y="-52" type="line"/>
      <point x="202" y="-62" type="line"/>
      <point x="387" y="608" type="line"/>
      <point x="345" y="618" type="line"/>
    </contour>
    <contour>
      <point x="100" y="564" type="line"/>
      <point x="100" y="0" type="line"/>
      <point x="436" y="0" type="line"/>
      <point x="436" y="71" type="line"/>
      <point x="192" y="71" type="line"/>
      <point x="192" y="252" type="line"/>
      <point x="391" y="252" type="line"/>
      <point x="391" y="323" type="line"/>
      <point x="192" y="323" type="line"/>
      <point x="192" y="493" type="line"/>
      <point x="421" y="493" type="line"/>
      <point x="431" y="564" type="line"/>
    </contour>
    <contour>
      <point x="416" y="0" type="move" name="ogonek"/>
    </contour>
    <contour>
      <point x="268" y="0" type="move" name="bottom"/>
    </contour>
    <contour>
      <point x="268" y="564" type="move" name="top"/>
    </contour>
  </outline>
</glyph>
<glyph name="uni0289.sc" format="1">
  <advance width="625"/>
  <outline>
    <contour>
      <point x="525" y="444" type="line"/>
      <point x="42" y="444" type="line"/>
      <point x="42" y="375" type="line"/>
      <point x="100" y="375" type="line"/>
      <point x="583" y="375" type="line"/>
      <point x="583" y="444" type="line"/>
    </contour>
    <component base="u.sc" xOffset="10"/>
  </outline>
</glyph>
<glyph name="uni030F.case" format="1">
  <advance width="366"/>
  <outline>
    <component base="uni030F" yOffset="126"/>
    <contour>
      <point x="230" y="689" type="move" name="_top"/>
    </contour>
  </outline>
</glyph>
<glyph name="uni0328.sc" format="1">
  <advance width="263"/>
  <outline>
    <component base="uni0328"/>
    <contour>
      <point x="243" y="0" type="move" name="_ogonek"/>
    </contour>
  </outline>
</glyph>
<glyph name="uni044A.sc" format="1">
  <advance width="606"/>
  <outline>
    <contour>
      <point x="275" y="564" type="line"/>
      <point x="15" y="564" type="line"/>
      <point x="15" y="492" type="line"/>
      <point x="183" y="492" type="line"/>
    </contour>
    <component base="uni044C.sc" xOffset="83"/>
  </outline>
</glyph>
<glyph name="uni044D.sc" format="1">
  <advance width="480"/>
  <outline>
    <contour>
      <point x="129" y="574"/>
      <point x="76" y="552"/>
      <point x="28" y="514" type="curve"/>
      <point x="72" y="459" type="line"/>
      <point x="116" y="488"/>
      <point x="147" y="501"/>
      <point x="200" y="501" type="curve" smooth="yes"/>
      <point x="272" y="501"/>
      <point x="327" y="465"/>
      <point x="328" y="306" type="curve"/>
      <point x="328" y="271" type="line"/>
      <point x="328" y="125"/>
      <point x="276" y="64"/>
      <point x="187" y="64" type="curve" smooth="yes"/>
      <point x="130" y="64"/>
      <point x="98" y="81"/>
      <point x="65" y="107" type="curve"/>
      <point x="20" y="51" type="line"/>
      <point x="58" y="17"/>
      <point x="109" y="-11"/>
      <point x="189" y="-11" type="curve" smooth="yes"/>
      <point x="335" y="-11"/>
      <point x="425" y="92"/>
      <point x="425" y="287" type="curve" smooth="yes"/>
      <point x="425" y="499"/>
      <point x="331" y="574"/>
      <point x="203" y="574" type="curve" smooth="yes"/>
    </contour>
    <contour>
      <point x="102" y="327" type="line"/>
      <point x="102" y="255" type="line"/>
      <point x="344" y="255" type="line"/>
      <point x="341" y="327" type="line"/>
    </contour>
    <contour>
      <point x="210" y="564" type="move" name="top"/>
    </contour>
    <contour>
      <point x="237" y="0" type="move" name="bottom"/>
    </contour>
  </outline>
</glyph>
<glyph name="uni044F.sc" format="1">
  <advance width="551"/>
  <outline>
    <contour>
      <point x="167" y="248" type="line"/>
      <point x="30" y="0" type="line"/>
      <point x="134" y="0" type="line"/>
      <point x="252" y="229" type="line"/>
    </contour>
    <contour>
      <point x="222" y="218" type="line"/>
      <point x="373" y="218" type="line"/>
      <point x="373" y="287" type="line"/>
      <point x="259" y="287" type="line" smooth="yes"/>
      <point x="192" y="287"/>
      <point x="144" y="320"/>
      <point x="144" y="389" type="curve" smooth="yes"/>
      <point x="144" y="458"/>
      <point x="184" y="495"/>
      <point x="283" y="495" type="curve" smooth="yes"/>
      <point x="359" y="495" type="line"/>
      <point x="359" y="0" type="line"/>
      <point x="451" y="0" type="line"/>
      <point x="451" y="564" type="line"/>
      <point x="277" y="564" type="line" smooth="yes"/>
      <point x="124" y="564"/>
      <point x="47" y="499"/>
      <point x="47" y="389" type="curve" smooth="yes"/>
      <point x="47" y="315"/>
      <point x="86" y="259"/>
      <point x="165" y="232" type="curve"/>
    </contour>
    <contour>
      <point x="281" y="564" type="move" name="top"/>
    </contour>
    <contour>
      <point x="281" y="0" type="move" name="bottom"/>
    </contour>
  </outline>
</glyph>
<glyph name="uni0463.sc" format="1">
  <advance width="557"/>
  <outline>
    <contour>
      <point x="135" y="0" type="line"/>
      <point x="301" y="0" type="line" smooth="yes"/>
      <point x="436" y="0"/>
      <point x="532" y="52"/>
      <point x="532" y="182" type="curve" smooth="yes"/>
      <point x="532" y="299"/>
      <point x="445" y="356"/>
      <point x="303" y="356" type="curve" smooth="yes"/>
      <point x="213" y="356" type="line"/>
      <point x="213" y="287" type="line"/>
      <point x="301" y="287" type="line" smooth="yes"/>
      <point x="387" y="287"/>
      <point x="435" y="258"/>
      <point x="435" y="181" type="curve" smooth="yes"/>
      <point x="435" y="94"/>
      <point x="380" y="71"/>
      <point x="305" y="71" type="curve" smooth="yes"/>
      <point x="227" y="71" type="line"/>
      <point x="227" y="564" type="line"/>
      <point x="135" y="564" type="line"/>
    </contour>
    <contour>
      <point x="358" y="442" type="line"/>
      <point x="358" y="507" type="line"/>
      <point x="135" y="507" type="line"/>
      <point x="15" y="507" type="line"/>
      <point x="15" y="442" type="line"/>
    </contour>
    <contour>
      <point x="286" y="564" type="move" name="top"/>
    </contour>
    <contour>
      <point x="286" y="0" type="move" name="bottom"/>
    </contour>
  </outline>
</glyph>
<glyph name="uni046B.sc" format="1">
  <advance width="644"/>
  <outline>
    <contour>
      <point x="104" y="0" type="line"/>
      <point x="214" y="247" type="line"/>
      <point x="277" y="247" type="line"/>
      <point x="277" y="0" type="line"/>
      <point x="368" y="0" type="line"/>
      <point x="368" y="247" type="line"/>
      <point x="429" y="247" type="line"/>
      <point x="539" y="0" type="line"/>
      <point x="639" y="0" type="line"/>
      <point x="487" y="314" type="line"/>
      <point x="155" y="314" type="line"/>
      <point x="5" y="0" type="line"/>
    </contour>
    <contour>
      <point x="371" y="266" type="line"/>
      <point x="556" y="504" type="line"/>
      <point x="556" y="564" type="line"/>
      <point x="501" y="564" type="line"/>
      <point x="324" y="314" type="line"/>
      <point x="141" y="564" type="line"/>
      <point x="87" y="564" type="line"/>
      <point x="87" y="504" type="line"/>
      <point x="271" y="265" type="line"/>
    </contour>
    <contour>
      <point x="519" y="498" type="line"/>
      <point x="519" y="564" type="line"/>
      <point x="131" y="564" type="line"/>
      <point x="131" y="498" type="line"/>
    </contour>
    <contour>
      <point x="322" y="564" type="move" name="top"/>
    </contour>
    <contour>
      <point x="322" y="0" type="move" name="bottom"/>
    </contour>
  </outline>
</glyph>
<glyph name="uni0491.sc" format="1">
  <advance width="445"/>
  <outline>
    <contour>
      <point x="435" y="564" type="line"/>
      <point x="435" y="689" type="line"/>
      <point x="348" y="689" type="line"/>
      <point x="348" y="554" type="line"/>
    </contour>
    <component base="uni0433.sc"/>
  </outline>
</glyph>
<glyph name="uni0493.sc" format="1">
  <advance width="472"/>
  <outline>
    <contour>
      <point x="127" y="336" type="line"/>
      <point x="40" y="336" type="line"/>
      <point x="40" y="264" type="line"/>
      <point x="358" y="264" type="line"/>
      <point x="358" y="336" type="line"/>
    </contour>
    <component base="uni0433.sc" xOffset="27"/>
  </outline>
</glyph>
<glyph name="uni049F.sc" format="1">
  <advance width="566"/>
  <outline>
    <contour>
      <point x="275" y="426" type="line"/>
      <point x="275" y="495" type="line"/>
      <point x="102" y="495" type="line"/>
      <point x="42" y="495" type="line"/>
      <point x="42" y="426" type="line"/>
    </contour>
    <component base="uni043A.sc" xOffset="2"/>
  </outline>
</glyph>
<glyph name="uni04A5.sc" format="1">
  <advance width="706"/>
  <outline>
    <contour>
      <point x="525" y="488" type="line"/>
      <point x="687" y="488" type="line"/>
      <point x="696" y="564" type="line"/>
      <point x="434" y="564" type="line"/>
    </contour>
    <component base="h.sc"/>
  </outline>
</glyph>
<glyph name="uni04B1.sc" format="1">
  <advance width="488"/>
  <outline>
    <contour>
      <point x="88" y="252" type="line"/>
      <point x="88" y="182" type="line"/>
      <point x="197" y="182" type="line"/>
      <point x="290" y="182" type="line"/>
      <point x="399" y="182" type="line"/>
      <point x="399" y="252" type="line"/>
    </contour>
    <component base="y.sc"/>
  </outline>
</glyph>
<glyph name="uni04B9.sc" format="1">
  <advance width="557"/>
  <outline>
    <contour>
      <point x="218" y="427" type="line"/>
      <point x="218" y="92" type="line"/>
      <point x="273" y="92" type="line"/>
      <point x="273" y="427" type="line"/>
    </contour>
    <contour>
      <point x="40" y="564" type="line"/>
      <point x="40" y="351" type="line" smooth="yes"/>
      <point x="40" y="243"/>
      <point x="109" y="175"/>
      <point x="217" y="175" type="curve" smooth="yes"/>
      <point x="284" y="175"/>
      <point x="326" y="194"/>
      <point x="380" y="235" type="curve"/>
      <point x="373" y="301" type="line"/>
      <point x="346" y="273"/>
      <point x="304" y="250"/>
      <point x="240" y="250" type="curve" smooth="yes"/>
      <point x="170" y="250"/>
      <point x="132" y="282"/>
      <point x="132" y="356" type="curve" smooth="yes"/>
      <point x="132" y="564" type="line"/>
    </contour>
    <contour>
      <point x="365" y="564" type="line"/>
      <point x="365" y="0" type="line"/>
      <point x="457" y="0" type="line"/>
      <point x="457" y="564" type="line"/>
    </contour>
    <contour>
      <point x="249" y="564" type="move" name="top"/>
    </contour>
    <contour>
      <point x="355" y="0" type="move" name="bottomleft"/>
    </contour>
    <contour>
      <point x="467" y="0" type="move" name="bottomright"/>
    </contour>
    <contour>
      <point x="279" y="0" type="move" name="bottom"/>
    </contour>
  </outline>
</glyph>
<glyph name="uni04FB.sc" format="1">
  <advance width="472"/>
  <outline>
    <contour>
      <point x="128" y="0" type="line"/>
      <point x="284" y="0" type="line"/>
      <point x="284" y="74" type="line"/>
      <point x="128" y="74" type="line"/>
    </contour>
    <component base="uni0493.sc"/>
    <component base="hookHELPER" xOffset="-12"/>
  </outline>
</glyph>
<glyph name="uni0505.sc" format="1">
  <advance width="661"/>
  <outline>
    <contour>
      <point x="511" y="312" type="line"/>
      <point x="514" y="278"/>
      <point x="515" y="245"/>
      <point x="515" y="214" type="curve" smooth="yes"/>
      <point x="515" y="91"/>
      <point x="471" y="61"/>
      <point x="421" y="61" type="curve" smooth="yes"/>
      <point x="380" y="61"/>
      <point x="355" y="78"/>
      <point x="325" y="125" type="curve" smooth="yes"/>
      <point x="241" y="259" type="line"/>
      <point x="153" y="246" type="line"/>
      <point x="239" y="102" type="line" smooth="yes"/>
      <point x="283" y="27"/>
      <point x="332" y="-11"/>
      <point x="420" y="-11" type="curve" smooth="yes"/>
      <point x="523" y="-11"/>
      <point x="605" y="56"/>
      <point x="605" y="208" type="curve" smooth="yes"/>
      <point x="605" y="245"/>
      <point x="603" y="279"/>
      <point x="600" y="312" type="curve"/>
    </contour>
    <contour>
      <point x="30" y="564" type="line"/>
      <point x="30" y="495" type="line"/>
      <point x="140" y="495" type="line" smooth="yes"/>
      <point x="233" y="495"/>
      <point x="275" y="467"/>
      <point x="275" y="401" type="curve" smooth="yes"/>
      <point x="275" y="328"/>
      <point x="229" y="302"/>
      <point x="149" y="302" type="curve" smooth="yes"/>
      <point x="60" y="302" type="line"/>
      <point x="60" y="234" type="line"/>
      <point x="172" y="234" type="line"/>
      <point x="304" y="256"/>
      <point x="371" y="302"/>
      <point x="371" y="401" type="curve" smooth="yes"/>
      <point x="371" y="509"/>
      <point x="293" y="564"/>
      <point x="141" y="564" type="curve" smooth="yes"/>
    </contour>
    <contour>
      <point x="326" y="564" type="move" name="top"/>
    </contour>
    <contour>
      <point x="326" y="0" type="move" name="bottom"/>
    </contour>
  </outline>
</glyph>
<glyph name="uni0507.sc" format="1">
  <advance width="432"/>
  <outline>
    <contour>
      <point x="181" y="234" type="line"/>
      <point x="310" y="260"/>
      <point x="371" y="307"/>
      <point x="371" y="403" type="curve" smooth="yes"/>
      <point x="371" y="513"/>
      <point x="292" y="565"/>
      <point x="144" y="565" type="curve" smooth="yes"/>
      <point x="30" y="565" type="line"/>
      <point x="30" y="494" type="line"/>
      <point x="141" y="494" type="line" smooth="yes"/>
      <point x="234" y="494"/>
      <point x="274" y="468"/>
      <point x="274" y="403" type="curve" smooth="yes"/>
      <point x="274" y="334"/>
      <point x="233" y="304"/>
      <point x="142" y="304" type="curve" smooth="yes"/>
      <point x="59" y="304" type="line"/>
      <point x="59" y="234" type="line"/>
    </contour>
    <contour>
      <point x="407" y="0" type="line"/>
      <point x="243" y="259" type="line"/>
      <point x="153" y="245" type="line"/>
      <point x="299" y="0" type="line"/>
    </contour>
    <component base="descStraightcy.case" xOffset="282"/>
    <contour>
      <point x="221" y="564" type="move" name="top"/>
    </contour>
    <contour>
      <point x="221" y="-202" type="move" name="bottom"/>
    </contour>
  </outline>
</glyph>
<glyph name="uni0515.sc" format="1">
  <advance width="704"/>
  <outline>
    <contour>
      <point x="190" y="490" type="line"/>
      <point x="347" y="490" type="line"/>
      <point x="347" y="564" type="line"/>
      <point x="123" y="564" type="line"/>
    </contour>
    <contour>
      <point x="123" y="564" type="line"/>
      <point x="98" y="296" type="line" smooth="yes"/>
      <point x="82" y="125"/>
      <point x="79" y="88"/>
      <point x="14" y="61" type="curve"/>
      <point x="37" y="-12" type="line"/>
      <point x="151" y="26"/>
      <point x="170" y="88"/>
      <point x="188" y="286" type="curve" smooth="yes"/>
      <point x="207" y="491" type="line"/>
    </contour>
    <component base="x.sc" xOffset="227"/>
    <contour>
      <point x="342" y="564" type="move" name="top"/>
    </contour>
    <contour>
      <point x="342" y="0" type="move" name="bottom"/>
    </contour>
  </outline>
</glyph>
<glyph name="uni0519.sc" format="1">
  <advance width="749"/>
  <outline>
    <contour>
      <point x="451" y="0" type="line"/>
      <point x="451" y="564" type="line"/>
      <point x="277" y="564" type="line" smooth="yes"/>
      <point x="124" y="564"/>
      <point x="47" y="499"/>
      <point x="47" y="389" type="curve" smooth="yes"/>
      <point x="47" y="315"/>
      <point x="86" y="259"/>
      <point x="165" y="232" type="curve"/>
      <point x="222" y="218" type="line"/>
      <point x="373" y="218" type="line"/>
      <point x="373" y="287" type="line"/>
      <point x="259" y="287" type="line" smooth="yes"/>
      <point x="192" y="287"/>
      <point x="144" y="320"/>
      <point x="144" y="389" type="curve" smooth="yes"/>
      <point x="144" y="458"/>
      <point x="184" y="495"/>
      <point x="283" y="495" type="curve" smooth="yes"/>
      <point x="359" y="495" type="line"/>
      <point x="359" y="0" type="line"/>
    </contour>
    <contour>
      <point x="134" y="0" type="line"/>
      <point x="252" y="229" type="line"/>
      <point x="167" y="248" type="line"/>
      <point x="30" y="0" type="line"/>
    </contour>
    <contour>
      <point x="695" y="0" type="line"/>
      <point x="695" y="71" type="line"/>
      <point x="451" y="71" type="line"/>
      <point x="451" y="252" type="line"/>
      <point x="650" y="252" type="line"/>
      <point x="650" y="323" type="line"/>
      <point x="451" y="323" type="line"/>
      <point x="451" y="493" type="line"/>
      <point x="680" y="493" type="line"/>
      <point x="690" y="564" type="line"/>
      <point x="359" y="564" type="line"/>
      <point x="359" y="0" type="line"/>
    </contour>
    <contour>
      <point x="380" y="564" type="move" name="top"/>
    </contour>
    <contour>
      <point x="380" y="0" type="move" name="bottom"/>
    </contour>
  </outline>
</glyph>
<glyph name="uni0E3F.tf" format="1">
  <advance width="560"/>
  <outline>
    <contour>
      <point x="228" y="17" type="line"/>
      <point x="228" y="-155" type="line"/>
      <point x="308" y="-155" type="line"/>
      <point x="308" y="12" type="line"/>
    </contour>
    <contour>
      <point x="228" y="824" type="line"/>
      <point x="228" y="683" type="line"/>
      <point x="308" y="675" type="line"/>
      <point x="308" y="824" type="line"/>
    </contour>
    <contour>
      <point x="65" y="689" type="line"/>
      <point x="65" y="0" type="line"/>
      <point x="249" y="0" type="line" smooth="yes"/>
      <point x="405" y="0"/>
      <point x="514" y="49"/>
      <point x="514" y="195" type="curve" smooth="yes"/>
      <point x="514" y="314"/>
      <point x="437" y="350"/>
      <point x="360" y="363" type="curve"/>
      <point x="425" y="377"/>
      <point x="485" y="427"/>
      <point x="485" y="515" type="curve" smooth="yes"/>
      <point x="485" y="637"/>
      <point x="388" y="689"/>
      <point x="223" y="689" type="curve" smooth="yes"/>
    </contour>
    <contour>
      <point x="332" y="617"/>
      <point x="391" y="596"/>
      <point x="391" y="508" type="curve" smooth="yes"/>
      <point x="391" y="432"/>
      <point x="333" y="395"/>
      <point x="258" y="395" type="curve" smooth="yes"/>
      <point x="142" y="395" type="line"/>
      <point x="142" y="324" type="line"/>
      <point x="267" y="324" type="line" smooth="yes"/>
      <point x="347" y="324"/>
      <point x="417" y="294"/>
      <point x="417" y="195" type="curve" smooth="yes"/>
      <point x="417" y="93"/>
      <point x="346" y="74"/>
      <point x="249" y="74" type="curve" smooth="yes"/>
      <point x="157" y="74" type="line"/>
      <point x="157" y="617" type="line"/>
      <point x="233" y="617" type="line" smooth="yes"/>
    </contour>
  </outline>
</glyph>
<glyph name="uni0E3F.tosf" format="1">
  <advance width="560"/>
  <outline>
    <contour>
      <point x="228" y="17" type="line"/>
      <point x="228" y="-155" type="line"/>
      <point x="308" y="-155" type="line"/>
      <point x="308" y="12" type="line"/>
    </contour>
    <contour>
      <point x="228" y="824" type="line"/>
      <point x="228" y="663" type="line"/>
      <point x="308" y="655" type="line"/>
      <point x="308" y="824" type="line"/>
    </contour>
    <contour>
      <point x="65" y="669" type="line"/>
      <point x="65" y="0" type="line"/>
      <point x="249" y="0" type="line" smooth="yes"/>
      <point x="405" y="0"/>
      <point x="514" y="49"/>
      <point x="514" y="190" type="curve" smooth="yes"/>
      <point x="514" y="304"/>
      <point x="437" y="340"/>
      <point x="360" y="353" type="curve"/>
      <point x="425" y="367"/>
      <point x="485" y="417"/>
      <point x="485" y="500" type="curve" smooth="yes"/>
      <point x="485" y="617"/>
      <point x="388" y="669"/>
      <point x="223" y="669" type="curve" smooth="yes"/>
    </contour>
    <contour>
      <point x="332" y="597"/>
      <point x="391" y="576"/>
      <point x="391" y="493" type="curve" smooth="yes"/>
      <point x="391" y="422"/>
      <point x="333" y="385"/>
      <point x="258" y="385" type="curve" smooth="yes"/>
      <point x="142" y="385" type="line"/>
      <point x="142" y="314" type="line"/>
      <point x="267" y="314" type="line" smooth="yes"/>
      <point x="347" y="314"/>
      <point x="417" y="284"/>
      <point x="417" y="190" type="curve" smooth="yes"/>
      <point x="417" y="93"/>
      <point x="346" y="74"/>
      <point x="249" y="74" type="curve" smooth="yes"/>
      <point x="157" y="74" type="line"/>
      <point x="157" y="597" type="line"/>
      <point x="233" y="597" type="line" smooth="yes"/>
    </contour>
  </outline>
</glyph>
<glyph name="uni1FCF.case" format="1">
  <advance width="394"/>
  <outline>
    <contour>
      <point x="206" y="406" type="line"/>
      <point x="226" y="442" type="line" smooth="yes"/>
      <point x="250" y="485"/>
      <point x="255" y="502"/>
      <point x="255" y="519" type="curve" smooth="yes"/>
      <point x="255" y="551"/>
      <point x="231" y="575"/>
      <point x="198" y="575" type="curve" smooth="yes"/>
      <point x="165" y="575"/>
      <point x="140" y="551"/>
      <point x="140" y="519" type="curve" smooth="yes"/>
      <point x="140" y="497"/>
      <point x="150" y="481"/>
      <point x="172" y="468" type="curve"/>
      <point x="153" y="406" type="line"/>
    </contour>
    <component base="uni1FC0" yOffset="-76"/>
    <contour>
      <point x="369" y="689" type="move" name="_topleft"/>
    </contour>
    <contour>
      <point x="199" y="698" type="move" name="top"/>
    </contour>
  </outline>
</glyph>
<glyph name="uni1FDF.case" format="1">
  <advance width="394"/>
  <outline>
    <contour>
      <point x="223" y="469" type="line"/>
      <point x="245" y="482"/>
      <point x="255" y="498"/>
      <point x="255" y="520" type="curve" smooth="yes"/>
      <point x="255" y="552"/>
      <point x="230" y="576"/>
      <point x="197" y="576" type="curve" smooth="yes"/>
      <point x="164" y="576"/>
      <point x="140" y="552"/>
      <point x="140" y="520" type="curve" smooth="yes"/>
      <point x="140" y="503"/>
      <point x="145" y="486"/>
      <point x="169" y="443" type="curve" smooth="yes"/>
      <point x="189" y="407" type="line"/>
      <point x="242" y="407" type="line"/>
    </contour>
    <component base="uni1FC0" yOffset="-75"/>
    <contour>
      <point x="369" y="689" type="move" name="_topleft"/>
    </contour>
    <contour>
      <point x="199" y="699" type="move" name="top"/>
    </contour>
  </outline>
</glyph>
<glyph name="uni1FEF.case" format="1">
  <advance width="193"/>
  <outline>
    <contour>
      <point x="30" y="689" type="line"/>
      <point x="98" y="490" type="line"/>
      <point x="163" y="501" type="line"/>
      <point x="126" y="707" type="line"/>
    </contour>
    <contour>
      <point x="192" y="689" type="move" name="_topleft"/>
    </contour>
  </outline>
</glyph>
<glyph name="uni1FFD.case" format="1">
  <advance width="193"/>
  <outline>
    <contour>
      <point x="30" y="502" type="line"/>
      <point x="95" y="491" type="line"/>
      <point x="163" y="690" type="line"/>
      <point x="67" y="708" type="line"/>
    </contour>
    <contour>
      <point x="188" y="689" type="move" name="_topleft"/>
    </contour>
    <contour>
      <point x="114" y="708" type="move" name="top"/>
    </contour>
  </outline>
</glyph>
<glyph name="uni20A6.tf" format="1">
  <advance width="560"/>
  <outline>
    <contour>
      <point x="-7" y="321" type="line"/>
      <point x="-7" y="262" type="line"/>
      <point x="566" y="262" type="line"/>
      <point x="566" y="321" type="line"/>
    </contour>
    <contour>
      <point x="-7" y="433" type="line"/>
      <point x="-7" y="373" type="line"/>
      <point x="566" y="373" type="line"/>
      <point x="566" y="433" type="line"/>
    </contour>
    <contour>
      <point x="407" y="689" type="line"/>
      <point x="407" y="314" type="line" smooth="yes"/>
      <point x="407" y="232"/>
      <point x="418" y="115"/>
      <point x="420" y="100" type="curve"/>
      <point x="185" y="689" type="line"/>
      <point x="65" y="689" type="line"/>
      <point x="65" y="0" type="line"/>
      <point x="151" y="0" type="line"/>
      <point x="151" y="317" type="line" smooth="yes"/>
      <point x="151" y="441"/>
      <point x="144" y="533"/>
      <point x="139" y="588" type="curve"/>
      <point x="370" y="0" type="line"/>
      <point x="494" y="0" type="line"/>
      <point x="494" y="689" type="line"/>
    </contour>
  </outline>
</glyph>
<glyph name="uni20A6.tosf" format="1">
  <advance width="560"/>
  <outline>
    <contour>
      <point x="-7" y="311" type="line"/>
      <point x="-7" y="252" type="line"/>
      <point x="566" y="252" type="line"/>
      <point x="566" y="311" type="line"/>
    </contour>
    <contour>
      <point x="-7" y="423" type="line"/>
      <point x="-7" y="363" type="line"/>
      <point x="566" y="363" type="line"/>
      <point x="566" y="423" type="line"/>
    </contour>
    <contour>
      <point x="407" y="669" type="line"/>
      <point x="407" y="304" type="line" smooth="yes"/>
      <point x="407" y="222"/>
      <point x="418" y="115"/>
      <point x="420" y="100" type="curve"/>
      <point x="185" y="669" type="line"/>
      <point x="65" y="669" type="line"/>
      <point x="65" y="0" type="line"/>
      <point x="151" y="0" type="line"/>
      <point x="151" y="307" type="line" smooth="yes"/>
      <point x="151" y="431"/>
      <point x="144" y="513"/>
      <point x="139" y="568" type="curve"/>
      <point x="370" y="0" type="line"/>
      <point x="494" y="0" type="line"/>
      <point x="494" y="669" type="line"/>
    </contour>
  </outline>
</glyph>
<glyph name="uni20A9.tf" format="1">
  <advance width="900"/>
  <outline>
    <contour>
      <point x="74" y="321" type="line"/>
      <point x="74" y="262" type="line"/>
      <point x="826" y="262" type="line"/>
      <point x="826" y="321" type="line"/>
    </contour>
    <contour>
      <point x="74" y="433" type="line"/>
      <point x="74" y="373" type="line"/>
      <point x="826" y="373" type="line"/>
      <point x="826" y="433" type="line"/>
    </contour>
    <contour>
      <point x="742" y="689" type="line"/>
      <point x="630" y="81" type="line"/>
      <point x="498" y="689" type="line"/>
      <point x="400" y="689" type="line"/>
      <point x="271" y="81" type="line"/>
      <point x="163" y="689" type="line"/>
      <point x="73" y="689" type="line"/>
      <point x="209" y="0" type="line"/>
      <point x="324" y="0" type="line"/>
      <point x="449" y="581" type="line"/>
      <point x="572" y="0" type="line"/>
      <point x="690" y="0" type="line"/>
      <point x="826" y="689" type="line"/>
    </contour>
  </outline>
</glyph>
<glyph name="uni20A9.tosf" format="1">
  <advance width="900"/>
  <outline>
    <contour>
      <point x="74" y="311" type="line"/>
      <point x="74" y="252" type="line"/>
      <point x="826" y="252" type="line"/>
      <point x="826" y="311" type="line"/>
    </contour>
    <contour>
      <point x="74" y="423" type="line"/>
      <point x="74" y="363" type="line"/>
      <point x="826" y="363" type="line"/>
      <point x="826" y="423" type="line"/>
    </contour>
    <contour>
      <point x="742" y="669" type="line"/>
      <point x="630" y="81" type="line"/>
      <point x="498" y="669" type="line"/>
      <point x="400" y="669" type="line"/>
      <point x="271" y="81" type="line"/>
      <point x="163" y="669" type="line"/>
      <point x="73" y="669" type="line"/>
      <point x="209" y="0" type="line"/>
      <point x="324" y="0" type="line"/>
      <point x="449" y="561" type="line"/>
      <point x="572" y="0" type="line"/>
      <point x="690" y="0" type="line"/>
      <point x="826" y="669" type="line"/>
    </contour>
  </outline>
</glyph>
<glyph name="uni20AA.tosf" format="1">
  <advance width="900"/>
  <outline>
    <contour>
      <point x="602" y="0" type="line" smooth="yes"/>
      <point x="806" y="0"/>
      <point x="847" y="71"/>
      <point x="847" y="217" type="curve" smooth="yes"/>
      <point x="847" y="564" type="line"/>
      <point x="756" y="564" type="line"/>
      <point x="756" y="217" type="line" smooth="yes"/>
      <point x="756" y="103"/>
      <point x="716" y="80"/>
      <point x="602" y="80" type="curve" smooth="yes"/>
      <point x="302" y="80" type="line"/>
      <point x="302" y="0" type="line"/>
    </contour>
    <contour>
      <point x="170" y="0" type="line"/>
      <point x="170" y="294" type="line" smooth="yes"/>
      <point x="170" y="388"/>
      <point x="172" y="458"/>
      <point x="179" y="497" type="curve"/>
      <point x="127" y="497" type="line"/>
      <point x="95" y="451"/>
      <point x="78" y="398"/>
      <point x="78" y="300" type="curve" smooth="yes"/>
      <point x="78" y="0" type="line"/>
    </contour>
    <contour>
      <point x="393" y="0" type="line"/>
      <point x="393" y="381" type="line"/>
      <point x="302" y="381" type="line"/>
      <point x="302" y="0" type="line"/>
    </contour>
    <contour>
      <point x="623" y="171" type="line"/>
      <point x="623" y="347" type="line" smooth="yes"/>
      <point x="623" y="518"/>
      <point x="542" y="564"/>
      <point x="378" y="564" type="curve" smooth="yes"/>
      <point x="53" y="564" type="line"/>
      <point x="53" y="484" type="line"/>
      <point x="378" y="484" type="line" smooth="yes"/>
      <point x="478" y="484"/>
      <point x="530" y="457"/>
      <point x="530" y="334" type="curve" smooth="yes"/>
      <point x="530" y="171" type="line"/>
    </contour>
  </outline>
</glyph>
<glyph name="uni20B4.tf" format="1">
  <advance width="560"/>
  <outline>
    <contour>
      <point x="194" y="703"/>
      <point x="135" y="676"/>
      <point x="77" y="626" type="curve"/>
      <point x="128" y="569" type="line"/>
      <point x="178" y="610"/>
      <point x="225" y="628"/>
      <point x="283" y="628" type="curve" smooth="yes"/>
      <point x="350" y="628"/>
      <point x="401" y="596"/>
      <point x="401" y="526" type="curve" smooth="yes"/>
      <point x="401" y="455"/>
      <point x="374" y="428"/>
      <point x="254" y="391" type="curve" smooth="yes"/>
      <point x="147" y="358"/>
      <point x="56" y="322"/>
      <point x="56" y="188" type="curve" smooth="yes"/>
      <point x="56" y="66"/>
      <point x="143" y="-12"/>
      <point x="295" y="-12" type="curve" smooth="yes"/>
      <point x="391" y="-12"/>
      <point x="466" y="20"/>
      <point x="522" y="74" type="curve"/>
      <point x="472" y="131" type="line"/>
      <point x="421" y="90"/>
      <point x="369" y="64"/>
      <point x="296" y="64" type="curve" smooth="yes"/>
      <point x="217" y="64"/>
      <point x="152" y="99"/>
      <point x="152" y="185" type="curve" smooth="yes"/>
      <point x="152" y="266"/>
      <point x="183" y="299"/>
      <point x="297" y="334" type="curve" smooth="yes"/>
      <point x="427" y="374"/>
      <point x="495" y="414"/>
      <point x="495" y="527" type="curve" smooth="yes"/>
      <point x="495" y="634"/>
      <point x="408" y="703"/>
      <point x="285" y="703" type="curve" smooth="yes"/>
    </contour>
    <contour>
      <point x="38" y="311" type="line"/>
      <point x="38" y="252" type="line"/>
      <point x="507" y="252" type="line"/>
      <point x="507" y="311" type="line"/>
    </contour>
    <contour>
      <point x="38" y="423" type="line"/>
      <point x="38" y="363" type="line"/>
      <point x="507" y="363" type="line"/>
      <point x="507" y="423" type="line"/>
    </contour>
  </outline>
</glyph>
<glyph name="uni20B4.tosf" format="1">
  <advance width="560"/>
  <outline>
    <contour>
      <point x="194" y="679"/>
      <point x="135" y="652"/>
      <point x="77" y="602" type="curve"/>
      <point x="128" y="545" type="line"/>
      <point x="178" y="586"/>
      <point x="225" y="604"/>
      <point x="283" y="604" type="curve" smooth="yes"/>
      <point x="350" y="604"/>
      <point x="401" y="572"/>
      <point x="401" y="508" type="curve" smooth="yes"/>
      <point x="401" y="443"/>
      <point x="374" y="416"/>
      <point x="254" y="379" type="curve" smooth="yes"/>
      <point x="147" y="346"/>
      <point x="56" y="310"/>
      <point x="56" y="182" type="curve" smooth="yes"/>
      <point x="56" y="66"/>
      <point x="143" y="-12"/>
      <point x="295" y="-12" type="curve" smooth="yes"/>
      <point x="391" y="-12"/>
      <point x="466" y="20"/>
      <point x="522" y="74" type="curve"/>
      <point x="472" y="131" type="line"/>
      <point x="421" y="90"/>
      <point x="369" y="64"/>
      <point x="296" y="64" type="curve" smooth="yes"/>
      <point x="217" y="64"/>
      <point x="152" y="99"/>
      <point x="152" y="179" type="curve" smooth="yes"/>
      <point x="152" y="254"/>
      <point x="183" y="287"/>
      <point x="297" y="322" type="curve" smooth="yes"/>
      <point x="427" y="362"/>
      <point x="495" y="402"/>
      <point x="495" y="509" type="curve" smooth="yes"/>
      <point x="495" y="610"/>
      <point x="408" y="679"/>
      <point x="285" y="679" type="curve" smooth="yes"/>
    </contour>
    <contour>
      <point x="38" y="311" type="line"/>
      <point x="38" y="252" type="line"/>
      <point x="507" y="252" type="line"/>
      <point x="507" y="311" type="line"/>
    </contour>
    <contour>
      <point x="38" y="423" type="line"/>
      <point x="38" y="363" type="line"/>
      <point x="507" y="363" type="line"/>
      <point x="507" y="423" type="line"/>
    </contour>
  </outline>
</glyph>
<glyph name="uniA7B2.sc" format="1">
  <advance width="315"/>
  <outline>
    <contour>
      <point x="151" y="-213"/>
      <point x="215" y="-147"/>
      <point x="215" y="-11" type="curve" smooth="yes"/>
      <point x="215" y="564" type="line"/>
      <point x="123" y="564" type="line"/>
      <point x="123" y="-25" type="line" smooth="yes"/>
      <point x="123" y="-108"/>
      <point x="105" y="-150"/>
      <point x="43" y="-150" type="curve" smooth="yes"/>
      <point x="6" y="-150"/>
      <point x="-13" y="-133"/>
      <point x="-13" y="-102" type="curve" smooth="yes"/>
      <point x="-13" y="-64"/>
      <point x="14" y="-45"/>
      <point x="64" y="-45" type="curve" smooth="yes"/>
      <point x="93" y="-45"/>
      <point x="116" y="-48"/>
      <point x="132" y="-53" type="curve"/>
      <point x="135" y="8" type="line"/>
      <point x="116" y="11"/>
      <point x="95" y="13"/>
      <point x="63" y="13" type="curve" smooth="yes"/>
      <point x="-27" y="13"/>
      <point x="-85" y="-30"/>
      <point x="-85" y="-106" type="curve" smooth="yes"/>
      <point x="-85" y="-170"/>
      <point x="-36" y="-213"/>
      <point x="44" y="-213" type="curve" smooth="yes"/>
    </contour>
    <contour>
      <point x="327" y="-48" type="line"/>
      <point x="284" y="-29"/>
      <point x="247" y="-16"/>
      <point x="200" y="-5" type="curve"/>
      <point x="198" y="-63" type="line"/>
      <point x="241" y="-73"/>
      <point x="267" y="-83"/>
      <point x="305" y="-98" type="curve"/>
    </contour>
    <contour>
      <point x="169" y="564" type="move" name="top"/>
    </contour>
    <contour>
      <point x="152" y="-202" type="move" name="bottom"/>
    </contour>
  </outline>
</glyph>
<glyph name="uniAB53.sc" format="1">
  <advance width="477"/>
  <outline>
    <contour>
      <point x="21" y="564" type="line"/>
      <point x="182" y="251" type="line"/>
      <point x="237" y="191" type="line"/>
      <point x="368" y="-100" type="line"/>
      <point x="472" y="-100" type="line"/>
      <point x="292" y="255" type="line"/>
      <point x="238" y="312" type="line"/>
      <point x="124" y="564" type="line"/>
    </contour>
    <contour>
      <point x="354" y="564" type="line"/>
      <point x="238" y="312" type="line"/>
      <point x="182" y="251" type="line"/>
      <point x="5" y="-100" type="line"/>
      <point x="104" y="-100" type="line"/>
      <point x="237" y="191" type="line"/>
      <point x="292" y="255" type="line"/>
      <point x="453" y="564" type="line"/>
    </contour>
    <contour>
      <point x="239" y="564" type="move" name="top"/>
    </contour>
    <contour>
      <point x="239" y="-202" type="move" name="bottom"/>
    </contour>
  </outline>
</glyph>
<glyph name="yen.tosf" format="1">
  <advance width="560"/>
  <outline>
    <contour>
      <point x="446" y="669" type="line"/>
      <point x="283" y="374" type="line"/>
      <point x="119" y="669" type="line"/>
      <point x="17" y="669" type="line"/>
      <point x="233" y="303" type="line"/>
      <point x="233" y="0" type="line"/>
      <point x="327" y="0" type="line"/>
      <point x="327" y="304" type="line"/>
      <point x="543" y="669" type="line"/>
    </contour>
    <contour>
      <point x="94" y="194" type="line"/>
      <point x="94" y="133" type="line"/>
      <point x="465" y="133" type="line"/>
      <point x="465" y="194" type="line"/>
    </contour>
    <contour>
      <point x="94" y="346" type="line"/>
      <point x="94" y="284" type="line"/>
      <point x="465" y="284" type="line"/>
      <point x="465" y="346" type="line"/>
    </contour>
  </outline>
</glyph>
